<svg id="Layer_2" data-name="Layer 2" xmlns="http://www.w3.org/2000/svg" viewBox="0 0 1115.327 774.253" style="width: 100%; height: 100%;">
  <g id="Layer_2-2" data-name="Layer 2">
    <g>
      <path d="m333.548,100.377l-.792-.197L81.066,627.11l887.256,68.487.998.077,32.51-427.75.064-.842L333.548,100.377Zm254.881,338.865l-503.871,185.196L333.501,103.26l254.928,335.983Zm1.479,1.587l374.79,252.481-877.449-67.73,502.66-184.751Zm.463-2.336L335.819,103.006l661.848,165.083-407.297,170.405Zm377.163,254.317l-375.394-252.889,407.573-170.521-32.179,423.41Z" fill="#367cff" opacity=".2"></path>
      <g>
        <path d="m1115.231,276.837c-1.455,37.51-19.21,70.535-46.168,92.523-22.907,18.683-52.43,29.404-84.281,28.168-15.514-.602-30.264-3.994-43.78-9.67-8.846-3.708-17.166-8.4-24.824-13.946-14.721-10.622-27.004-24.333-35.966-40.162v-.014c-11.104-19.626-17.058-42.472-16.12-66.643,2.691-69.361,61.089-123.396,130.435-120.705,69.361,2.691,123.396,61.089,120.705,130.449Z" fill="#fff"></path>
        <path d="m1115.231,276.837c-1.455,37.51-19.21,70.535-46.168,92.523-22.907,18.683-52.43,29.404-84.281,28.168-15.514-.602-30.264-3.994-43.78-9.67-8.846-3.708-17.166-8.4-24.824-13.946-14.721-10.622-27.004-24.333-35.966-40.162v-.014c-11.104-19.626-17.058-42.472-16.12-66.643,2.691-69.361,61.089-123.396,130.435-120.705,69.361,2.691,123.396,61.089,120.705,130.449Z" fill="#367cff" opacity=".09"></path>
        <g>
          <path d="m1019.367,176.258s30.045.368,19.686,41.773l-2.821.138-5.727.279" fill="#0c0c0c"></path>
          <g>
            <path id="sk" d="m985.819,261.472c.141-.013.694,25.813,30.713,24.728,20.782-.748,29.024-22.447,29.498-22.428-2.216-.562-5.951-1.398-6.923-1.966-3.195-1.88-7.162-3.861-7.967-10.238-.464-3.676,1.289-22.32,1.116-26.027l-32.083,5.865c.142,7.821,2.55,26.034-8.477,28.813-1.835.459-3.808.87-5.877,1.253Z" fill="#ff9e85"></path>
            <path id="sh" d="m998.884,253.092c.506-1.421.823-2.661,1.148-4.9.582-4.004.499-7.708.238-11.49,6.459-.606,12.733-3.069,17.879-7.02.506,2.204,3.384,11.861,2.405,13.899-1.852,3.853-10.09,9.96-21.669,9.51Z" fill="#0c0c0c" opacity=".52"></path>
            <path d="m1006.167,248.529c12.577-.897,27.749-8.557,28.276-25.597l.476-15.375c.527-17.04-7.995-31.13-24.039-31.627h0c-16.044-.496-28.463,12.946-28.991,29.986l-.211,6.807c-.043,1.401.026,3.92.383,6.997.712,6.14,1.818,15.475,5.86,21.85,3.817,6.019,10.21,7.532,18.245,6.958Z" fill="#ff9e85"></path>
            <path d="m1033.286,228.092c4.876.151,8.99-4.943,9.14-9.819.151-4.876-3.718-7.687-8.594-7.838l-2.613,3.189-2.125,14.337,4.192.13Z" fill="#ff9e85"></path>
            <path d="m982.714,224.865s2.603,3.436,7.286,2.846c2.898-.365,4.823.825,7.244.586,2.032-.201,2.385-1.138,5.852-1.344,13.388-.793,23.434-1.637,24.085-18.436l8.519-7.567s3.807,46.552-21.372,52.74c-15.472,3.802-29.984,2.411-31.849-12.121-1.516-11.807.235-16.705.235-16.705Z" fill="#0c0c0c"></path>
            <g>
              <g>
                <circle id="e1_eye" cx="988.818" cy="212.802" r="1.855" fill="#0a0a0a"></circle>
                <g id="e1_n">
                  <path d="m998.475,226.268c.375,0,.697-.283.737-.665.043-.408-.253-.773-.661-.815l-3.929-.411,2.418-7.848c.12-.392-.099-.807-.491-.927-.391-.12-.806.099-.927.49l-2.684,8.711c-.065.212-.032.442.091.627s.321.306.542.329l4.827.505c.026.003.052.004.078.004Z" fill="#0a0a0a"></path>
                </g>
                <path id="e1_eb" d="m1004.96,206.389c-.178.553,1.832,1.379,4.659,2.137s5.385,1.304,5.578.607c.243-.88-1.864-2.953-4.691-3.71-2.827-.758-5.266.098-5.546.967Z" fill="#0a0a0a"></path>
                <circle id="e1_eye-2" data-name="e1_eye" cx="1007.337" cy="213.19" r="1.855" fill="#0a0a0a"></circle>
                <path id="e1_eb-2" data-name="e1_eb" d="m982.513,208.031c.061.577,2.234.517,5.125.062,2.891-.455,5.451-.994,5.344-1.709-.135-.903-2.6-2.007-5.492-1.552-2.891.455-5.075,2.29-4.978,3.198Z" fill="#0a0a0a"></path>
              </g>
              <path d="m995.089,231.788c-.268.007-.443.271-.36.526,1.089,3.299,4.414,4.959,7.879,4.106s5.806-3.891,5.28-7.307c-.042-.273-.338-.423-.581-.292-.775.416-2.603,1.242-6.119,2.08-3.021.72-5.171.863-6.099.888Z" fill="#fff"></path>
            </g>
          </g>
          <path d="m1028.577,220.167s-1.208-24.147-8.493-25.769c-4.852-1.081-16.789,5.613-27.691,3.327-4.769-1-9.335.102-9.838,2.354-.199.892-3.974-7.019,3.699-16.645,6.109-7.664,25.974-9.82,34.812-7.11,24.472,7.505,13.753,35.192,13.753,35.192l-1.248,8.295-4.993.356Z" fill="#0c0c0c"></path>
          <circle cx="1039.698" cy="187.655" r="13.042" fill="#0c0c0c"></circle>
          <path d="m1084.441,325.959c-1.118,8.443-2.209,20.039-3.184,32.031-3.81,4.056-7.88,7.85-12.19,11.366-2.738,2.226-5.563,4.348-8.482,6.346-21.507,14.727-47.744,22.916-75.803,21.827-11.551-.448-22.682-2.441-33.191-5.781-.248-11.138-.586-26.162-.923-39.926-.385-15.877-.774-30.093-.983-34.764-.862-18.538-5.776-30.907-2.061-41.021.998-2.763,2.65-5.372,5.219-7.884,8.655-8.471,30.154-8.277,38.777-7.943.15.006-2.514,19.907,25.857,19.667,20.852-.172,22.417-17.794,22.417-17.794,0,0,10.276,1.069,17.096,2.254,11.163,1.954,18.419,6.049,24.067,12.162,5.273,5.698,8.38,11.754,3.385,49.458Z" fill="#367cff"></path>
          <g>
            <path d="m917.648,262.172l.858-21.235c.079-1.955-1.527-3.587-3.525-3.495-1.772.082-3.13,1.625-3.201,3.397l-.184,4.554-5.994-14.585c-.638-1.633-2.466-3.229-4.251-2.392-1.487.581-2.324,2.105-2.101,3.62-.016.004-.034.004-.049.011-.013.005-.021.015-.032.022l-.984-2.518c-.759-1.942-3.124-2.781-4.98-1.589-1.359.873-1.826,2.648-1.239,4.153l.419,1.072c-.025.027-.046.057-.06.091-.904-1.321-2.666-1.862-4.203-1.143-1.63.762-2.298,2.741-1.643,4.417l1.04,2.662c-.082-.052-.184-.07-.282-.031-.057.024-.099.065-.132.112-1.093-.916-2.728-1.106-4.078-.195-1.314.886-1.745,2.631-1.169,4.107l8.777,22.459c2.512,6.427,8.672,10.688,15.572,10.77h0c6.047.072,11.055-4.68,11.299-10.723l.143-3.539Z" fill="#ff9e85"></path>
            <g fill="none" opacity=".2">
              <path d="m905.111,246.502c-.157.06-.334-.016-.398-.172l-5.683-13.877c-.065-.158.011-.34.17-.405.144-.073.34.011.405.17l5.683,13.877c.065.158-.011.34-.17.405l-.007.003Z" fill="#0c0c0c"></path>
            </g>
            <g fill="none" opacity=".2">
              <path d="m899.06,249.177c-.157.06-.334-.016-.398-.172l-6.342-15.487c-.065-.158.011-.34.17-.405.145-.058.34.011.405.17l6.342,15.487c.065.158-.011.34-.17.405l-.007.003Z" fill="#0c0c0c"></path>
            </g>
            <g fill="none" opacity=".2">
              <path d="m892.523,252.112c-.157.06-.334-.016-.398-.172l-5.059-12.353c-.065-.158.011-.34.17-.405.161-.062.34.011.405.17l5.059,12.353c.065.158-.011.34-.17.405l-.007.003Z" fill="#0c0c0c"></path>
            </g>
          </g>
          <path d="m987.941,295.465l-51.679,79.456c-1.926,2.957-4.46,5.341-7.36,7.07-4.419-2.433-8.667-5.14-12.726-8.08-8.693-6.272-16.544-13.632-23.34-21.861l-10.855-84.164,43.443-6.961,4.953,40.513,19.848-30.513,37.717,24.541Z" fill="#367cff"></path>
          <path d="m1098.455,334.889c-4.848,8.368-10.633,16.11-17.199,23.101-3.81,4.056-7.88,7.85-12.19,11.366-2.738,2.226-5.563,4.348-8.482,6.346l-20.188-76.791,45.458-11.957,12.601,47.935Z" fill="#367cff"></path>
          <path d="m1061.027,375.398c-.144.095-.298.199-.442.303-.144.095-.288.199-.432.294l-15.383-58.5.97-.253,15.287,58.156Z" fill="#0c0c0c"></path>
          <path d="m950.79,355.439c-.257-.01-.468-.216-.479-.477l-.991-21.8c-.013-.276.201-.509.477-.522.271-.017.509.2.522.477l.991,21.8c.013.276-.201.509-.477.522-.015,0-.028,0-.043,0Z" fill="#0c0c0c"></path>
        </g>
      </g>
      <g>
        <circle cx="576.92" cy="429.052" r="128.115" fill="#fff"></circle>
        <path d="m705.036,429.048c0,22.18-5.636,43.048-15.554,61.252-8.816,16.154-21.008,30.201-35.627,41.193-11.229,8.453-23.896,15.093-37.566,19.487-12.401,4.017-25.625,6.18-39.366,6.18-35.32,0-67.307-14.298-90.477-37.413-23.254-23.198-37.636-55.268-37.636-90.7,0-70.752,57.361-128.113,128.113-128.113s128.113,57.361,128.113,128.113Z" fill="#367cff" opacity=".09"></path>
        <g>
          <g>
            <path d="m517.912,359.27s.798,23.945-3.005,31.451c-10.949,21.611-13.327,38.019.452,48.974,13.779,10.956,95.042,4.108,98.802-24.153,3.166-23.793-8.171-25.343-12.54-44.368-1.977-8.608-6.922-26.59-6.922-26.59" fill="#0a0a0a"></path>
            <path id="sk-2" data-name="sk" d="m589.379,415.453c-.139-.018-1.681,25.567-31.404,23.337-20.577-1.541-27.914-23.373-28.385-23.373,2.219-.472,5.954-1.157,6.94-1.683,3.24-1.741,7.249-3.553,8.294-9.845.602-3.627-.419-22.18-.105-25.849l31.585,7.05c-.441,7.75-3.53,25.715,7.296,28.895,1.801.526,3.742,1.009,5.779,1.469Z" fill="#ff9e85"></path>
            <path id="sh-2" data-name="sh" d="m576.747,406.642c-.447-1.428-.714-2.67-.95-4.902-.423-3.992-.198-7.662.206-11.402-6.381-.849-12.507-3.533-17.457-7.648-.587,2.166-3.812,11.63-2.919,13.689,1.688,3.891,9.621,10.263,21.12,10.263Z" fill="#0c0c0c" opacity=".22"></path>
            <path d="m572.625,397.811c-12.463,2.305-24.631-1.595-29.445-18.042l-7.053-14.567c-4.814-16.447-.078-32.309,15.408-36.841h0c15.486-4.533,28.671-.559,33.485,15.888,0,0,2.897,9.396,3.517,12.61,2.336,12.119,2.999,37.455-15.911,40.953Z" fill="#ff9e85"></path>
            <path d="m576.301,379.597c.263-.048.49.175.46.441-.391,3.452-3.306,5.759-6.874,5.632s-6.48-2.621-6.664-6.073c-.015-.276.245-.483.509-.405.844.249,2.802.683,6.416.784,3.105.087,5.239-.214,6.153-.379Z" fill="#fff"></path>
            <path id="e1_eb-3" data-name="e1_eb" d="m585.599,354.631c-.005.549-2.056.693-4.821.532s-5.226-.432-5.191-1.116c.044-.863,2.332-1.431,5.097-1.27,2.765.161,4.922.99,4.915,1.854Z" fill="#0a0a0a"></path>
            <path d="m524.021,371.709l18.246,3.16c10.287-5.385,7.354-31.386,7.354-31.386,0,0,14.255,11.406,45.08,1.103,0,0-10.496-41.957-55.826-24.605-14.617,5.595-23.777,23.186-20.451,43.285,2.331,14.085,5.598,8.443,5.598,8.443Z" fill="#0a0a0a"></path>
            <path d="m542.899,384.772c-4.706,1.377-9.81.157-11.865-6.932-1.365-4.71,2.17-8.732,6.876-10.11l3.348,2.444,5.686,13.414-4.046,1.184Z" fill="#ff9e85"></path>
            <g>
              <circle id="e1_eye-3" data-name="e1_eye" cx="577.991" cy="360.582" r="1.755" transform="translate(-32.418 58.102) rotate(-5.598)" fill="#0a0a0a"></circle>
              <g id="e1_n-2" data-name="e1_n">
                <path d="m570.762,375.064c-.353.035-.683-.203-.755-.558-.078-.38.167-.751.547-.829l3.662-.75-3.002-7.168c-.149-.358.019-.769.377-.919.357-.149.769.019.919.376l3.331,7.956c.081.194.071.414-.027.599s-.274.318-.48.36l-4.499.921c-.024.005-.049.009-.073.011Z" fill="#0a0a0a"></path>
              </g>
              <path id="e1_eb-4" data-name="e1_eb" d="m564.348,355.747c.219.504-1.598,1.468-4.191,2.442s-4.952,1.725-5.197,1.086c-.31-.807,1.551-2.254,4.143-3.229,2.592-.974,4.9-1.092,5.244-.3Z" fill="#0a0a0a"></path>
              <circle id="e1_eye-4" data-name="e1_eye" cx="560.584" cy="363.412" r="1.755" transform="translate(-32.777 56.418) rotate(-5.598)" fill="#0a0a0a"></circle>
            </g>
            <path d="m531.114,365.048l.434,6.686c1.116-1.646,2.84-2.884,4.937-3.344.52-.121,1.045-.166,1.56-.173,3.434,2.212,1.622,7.045,4.221,6.652,1.476-.223,4.515-4.057,5.113-6.309.379-1.428-3.846-6.349-3.971-7.821" fill="#0a0a0a"></path>
          </g>
          <g>
            <path d="m657.338,410.302l5.595-18.997c.515-1.749,2.421-2.709,4.157-2.029,1.539.602,2.276,2.371,1.809,3.956l-1.2,4.074,9.653-11.078c1.052-1.25,3.142-2.112,4.467-.84,1.139.958,1.422,2.553.771,3.823.013.009.029.013.04.025.01.008.014.02.022.029l1.622-1.928c1.251-1.487,3.589-1.519,4.87.088.938,1.177.819,2.884-.149,4.035l-.69.821c.014.031.023.064.026.098,1.193-.895,2.909-.846,4.051.248,1.21,1.16,1.208,3.106.129,4.389l-1.714,2.038c.088-.021.183-.006.259.057.043.038.068.087.083.138,1.239-.482,2.738-.16,3.657,1.048.894,1.175.753,2.844-.197,3.974l-14.464,17.195c-4.139,4.921-10.85,6.838-16.964,4.846h0c-5.358-1.746-8.356-7.437-6.763-12.843l.932-3.166Z" fill="#ff9e85"></path>
            <g fill="none" opacity=".2">
              <path d="m673.09,400.223c.121.1.3.086.403-.033l9.166-10.547c.105-.12.092-.303-.029-.408-.105-.107-.303-.092-.408.029l-9.166,10.547c-.105.12-.092.303.029.408l.005.004Z" fill="#0c0c0c"></path>
            </g>
            <g fill="none" opacity=".2">
              <path d="m677.63,404.394c.121.1.3.086.403-.033l10.23-11.77c.105-.12.092-.303-.029-.408-.111-.095-.303-.092-.408.029l-10.23,11.77c-.105.12-.092.303.029.408l.005.004Z" fill="#0c0c0c"></path>
            </g>
            <g fill="none" opacity=".2">
              <path d="m682.521,408.94c.121.1.3.086.403-.033l8.16-9.389c.105-.12.092-.303-.029-.408-.124-.103-.303-.092-.408.029l-8.16,9.389c-.105.12-.092.303.029.408l.005.004Z" fill="#0c0c0c"></path>
            </g>
          </g>
          <path d="m691.419,418.595l-21.65,98.22c-.05.22-.1.45-.16.67-4.85,5.08-10.13,9.77-15.75,14.01-1.13.84-2.26,1.67-3.42,2.47-.72.08-1.44.12-2.16.12-7.77,0-15.07-4.12-19.04-10.99l-41.26-71.39,38.1-22.01,12.91,22.34,9.46-42.91,42.97,9.47Z" fill="#0cbc8b"></path>
          <path d="m624.789,463.376c-.13,1.56-.39,4.34-.75,8-1.8,18.71-6.01,60.41-7.96,79.68-12.34,3.96-25.5,6.11-39.16,6.11-12.76,0-25.07-1.86-36.7-5.34h-.01c-18.55-5.54-35.33-15.17-49.3-27.84.08-17.23-.17-36.61-1.33-49.07-3.47-37.23-.19-43.06,5.2-48.45.44-.44.9-.87,1.36-1.29,5.57-5.06,12.56-8.36,22.75-9.74,6.74-.91,16.88-1.57,16.88-1.57,0,0,.86,17.38,21.33,18.34,27.87,1.31,26.01-18.34,26.15-18.34,7.01,0,22.61.44,32.45,5.45q.01,0,.02.01c2.08,1.06,3.9,2.32,5.33,3.83,11.27,11.94,5.71,17.05,3.74,40.22Z" fill="#0cbc8b"></path>
          <path d="m620.492,505.321c-.012,0-.025,0-.037-.003-.164-.022-.279-.174-.256-.339l3.435-34.609c.022-.164.168-.281.339-.256.164.022.279.174.256.339l-3.435,34.609c-.021.152-.152.261-.301.259Z" fill="#0c0c0c"></path>
          <g>
            <path d="m599.701,503.654l18.775-8.385c1.728-.772,3.771.086,4.404,1.915.562,1.621-.338,3.395-1.905,4.095l-4.026,1.798,15.255.157c1.696-.012,3.786,1.058,3.674,2.962.011,1.545-1.058,2.843-2.5,3.186.002.016.009.032.007.049,0,.013-.006.024-.008.037l2.616-.019c2.017-.014,3.619,1.81,3.213,3.905-.297,1.534-1.725,2.591-3.288,2.602l-1.113.008c-.015.032-.035.062-.06.087,1.511.339,2.629,1.728,2.534,3.367-.1,1.738-1.639,3.047-3.38,3.06l-2.765.02c.076.055.128.14.13.243,0,.06-.023.112-.053.158,1.216.654,1.972,2.055,1.637,3.595-.326,1.498-1.738,2.512-3.271,2.523l-23.329.166c-6.676.048-12.714-3.961-15.262-10.132h0c-2.233-5.409.242-11.612,5.585-13.998l3.129-1.397Z" fill="#ff9e85"></path>
            <g fill="none" opacity=".2">
              <path d="m618.278,509.301c.002.163.134.294.298.296l14.508.131c.166.001.301-.132.303-.298.014-.156-.132-.301-.298-.303l-14.508-.131c-.166-.001-.301.132-.303.298v.007Z" fill="#0c0c0c"></path>
            </g>
            <g fill="none" opacity=".2">
              <path d="m618.044,515.698c.002.163.134.294.298.296l16.191.146c.166.001.301-.132.303-.298,0-.152-.132-.301-.298-.303l-16.191-.146c-.166-.001-.301.132-.303.298v.007Z" fill="#0c0c0c"></path>
            </g>
            <g fill="none" opacity=".2">
              <path d="m617.75,522.625c.002.163.134.294.298.296l12.915.117c.166.001.301-.132.303-.298-.002-.167-.132-.301-.298-.303l-12.915-.117c-.166-.001-.301.132-.303.298v.007Z" fill="#0c0c0c"></path>
            </g>
          </g>
          <path d="m605.079,537.086l-64.86,14.74h-.01c-18.55-5.54-35.33-15.17-49.3-27.84-1.52-1.38-3.01-2.79-4.46-4.24-2.53-2.53-4.96-5.16-7.27-7.89l9.08-73.04c.94-5.57,3.84-10.31,7.88-13.64,4.86-4,11.36-5.95,18.05-4.83,12.27,2.06,20.53,13.68,18.47,25.94l-5.74,68.58,72.32-16.37,5.84,38.59Z" fill="#0cbc8b"></path>
          <g id="b_4_st">
            <path d="m512.29,517.56c-.146,0-.274-.107-.297-.256-.024-.164.089-.317.252-.341l14.505-3.097c.17-.026.317.089.342.252.024.164-.089.317-.252.341l-14.505,3.097c-.015.002-.03.004-.045.004Z" fill="#0c0c0c"></path>
          </g>
          <g id="b_4_st-2" data-name="b_4_st">
            <path d="m605.079,537.086c.03.16-.06.32-.22.36l-63.01,14.85c-.4-.11-.79-.22-1.18-.34l63.75-15.01-5.68-38-71.89,15.51c-.1.02-.19-.02-.26-.08-.06-.07-.09-.17-.08-.26l4.03-39.19c.03-.16.18-.27.35-.24.16.02.27.18.25.34l-3.97,38.79,71.7-15.54c.08-.02.16-.01.23.04.07.04.12.1.14.18l5.84,38.59Z" fill="#0c0c0c"></path>
          </g>
        </g>
      </g>
      <g>
        <circle cx="117.474" cy="587.305" r="117.474" fill="#fff"></circle>
        <circle cx="117.474" cy="587.305" r="117.474" fill="#367cff" opacity=".09"></circle>
        <g>
          <g>
            <circle cx="93.885" cy="550.708" r="13.536" fill="#0a0a0a"></circle>
            <path d="m82.532,522.902s-.662,24.735,26.264,34.176l1.681-43.512-27.945,9.336Z" fill="#0a0a0a"></path>
            <g>
              <path id="sk-3" data-name="sk" d="m144.511,574.323c-.124-.016-1.504,22.882-28.106,20.886-18.416-1.38-24.982-20.918-25.404-20.918,1.986-.422,5.329-1.036,6.211-1.506,2.9-1.558,6.488-3.179,7.423-8.811.539-3.246-.375-19.851-.094-23.135l28.268,6.309c-.395,6.936-3.159,23.014,6.53,25.86,1.612.471,3.349.903,5.172,1.315Z" fill="#ff9e85"></path>
              <path id="sh-3" data-name="sh" d="m133.206,566.438c-.4-1.278-.639-2.389-.85-4.387-.379-3.573-.177-6.857.185-10.204-5.711-.76-11.193-3.162-15.623-6.845-.525,1.939-3.412,10.409-2.612,12.251,1.511,3.483,8.61,9.185,18.901,9.185Z" fill="#0c0c0c" opacity=".22"></path>
              <path d="m128.71,560.268c-11.176.687-23.025-4.231-25.485-19.169l-4.625-13.529c-2.46-14.938,3.391-28.34,17.456-30.657h0c14.065-2.317,25.202,2.58,27.662,17.518,0,0,1.535,8.55,1.734,11.434.751,10.877.216,33.361-16.742,34.403Z" fill="#ff9e85"></path>
              <path id="e1_eb-5" data-name="e1_eb" d="m145.591,523.52c-.063.481-1.877.388-4.285-.05-2.407-.437-4.536-.939-4.432-1.534.131-.752,2.198-1.005,4.606-.568s4.21,1.395,4.111,2.152Z" fill="#0a0a0a"></path>
              <g>
                <circle id="e1_eye-5" data-name="e1_eye" cx="141.584" cy="528.794" r="1.551" transform="translate(-390.429 657.754) rotate(-88.636)" fill="#0a0a0a"></circle>
                <g id="e1_n-3" data-name="e1_n">
                  <path d="m129.358,540.102c-.314-.007-.577-.251-.603-.57-.028-.341.227-.641.568-.668l3.292-.265-1.865-6.607c-.093-.33.099-.672.429-.765.329-.093.672.099.765.428l2.069,7.333c.05.179.018.37-.088.523s-.274.249-.459.264l-4.044.326c-.022.002-.044.002-.065.002Z" fill="#0a0a0a"></path>
                </g>
                <g id="e1_m">
                  <path d="m129.516,547.219c-5.608.392-7.514-2.88-7.6-3.034-.167-.299-.061-.677.238-.844.297-.167.673-.062.842.235.08.139,2.025,3.348,8.145,2.179.343-.067.662.157.726.493.064.336-.157.661-.493.726-.66.126-1.279.206-1.858.246Z" fill="#0a0a0a"></path>
                </g>
                <path id="e1_eb-6" data-name="e1_eb" d="m126.772,522.748c.138.465-1.559,1.116-3.936,1.693s-4.527.982-4.674.396c-.185-.74,1.602-1.811,3.979-2.388,2.378-.577,4.414-.433,4.631.299Z" fill="#0a0a0a"></path>
                <circle id="e1_eye-6" data-name="e1_eye" cx="125.236" cy="529.247" r="1.551" transform="translate(-406.841 641.854) rotate(-88.636)" fill="#0a0a0a"></circle>
              </g>
              <path d="m87.636,531.64l15.312,5.064c2.867-.926,5.396-3.6,7.529-6.878,4.909-7.543,4.069-17.584,4.069-17.584,0,0,8.781,6.838,32.385,4.521,0,0-.973-32.39-39.183-27.831-13.308,1.588-25.27,14.878-25.373,32.323-.072,12.225,5.261,10.384,5.261,10.384Z" fill="#0a0a0a"></path>
              <path d="m102.443,545.455c-4.274.704-8.62-.912-9.662-7.349-.692-4.276,2.838-7.425,7.113-8.129l2.674,2.501,3.55,12.372-3.675.605Z" fill="#ff9e85"></path>
              <path d="m94.22,526.897l-.335,5.909c1.155-1.324,2.8-2.225,4.688-2.404.469-.051.934-.034,1.387.015,2.774,2.308.668,6.352,2.989,6.285,1.318-.038,4.394-3.074,5.159-4.985.485-1.211-2.692-5.979-2.645-7.283" fill="#0a0a0a"></path>
            </g>
          </g>
          <path d="m184.215,598.265c-.08,8.01-2.83,17.56-3.81,29.1-.26,3.08-6.871,11.991-7.831,21.9-1.21,12.62,1.481,32.295,1.841,40.81-6.59,3.65-13.56,6.69-20.84,9.03-11.37,3.69-23.5,5.67-36.1,5.67-23.44,0-45.27-6.87-63.61-18.7-.48-21.86-1.05-48.85-1.78-55.32-2.37-21.36-1.73-34.87,1.69-41.19,5.59-10.32,15.54-13.47,25.95-14.89,6.36-.86,15.91-1.47,15.91-1.47,0,0,.81,16.37,20.11,17.28,26.27,1.24,24.52-17.28,24.65-17.28,9.53,0,27.59,2.28,34.51,7,7.34,4.99,9.4,10.91,9.31,18.06Z" fill="#ffc239"></path>
        </g>
        <path d="m93.455,610.725l-35.64,77.78c-8.52-5.02-16.34-11.1-23.3-18.04-4.24-4.23-8.16-8.78-11.7-13.61l29.73-64.88,40.91,18.75Z" fill="#ffc239"></path>
        <path d="m213.005,655.676c-6.97,9.73-15.41,18.36-24.99,25.56-3.15,2.38-6.42,4.59-9.81,6.64l-36.58-80.42,40.96-18.64,30.42,66.86Z" fill="#ffc239"></path>
      </g>
      <g>
        <g>
          <circle cx="361.956" cy="122.309" r="122.309" fill="#fff"></circle>
          <circle cx="361.956" cy="122.309" r="122.309" fill="#367cff" opacity=".09"></circle>
        </g>
        <g>
          <g>
            <path d="m388.598,49.756s8.217-8.173,8.307-24.407c.07-12.569-10.209-3.025-10.209-3.025,0,0-.038-9.051-6.391-7.282-6.353,1.769-8.704,11.604-8.704,11.604" fill="#0c0c0c"></path>
            <path d="m346.97,20.668s-31.664,7.847-14.082,49.802l2.87-.199,5.825-.404" fill="#0c0c0c"></path>
            <path id="sk-4" data-name="sk" d="m387.611,114.074c-.143-.019-1.725,26.24-32.23,23.95-21.118-1.582-28.648-23.988-29.132-23.988,2.277-.484,5.091-1.218,6.209-1.47,3.715-.837,8.353-3.903,9.425-10.361.618-3.722-.43-22.764-.108-26.529l32.416,7.235c-.453,7.953-3.623,26.391,7.488,29.655,1.849.54,3.84,1.036,5.931,1.508Z" fill="#ff9e85"></path>
            <path id="sh-4" data-name="sh" d="m374.647,105.031c-.459-1.466-.732-2.74-.975-5.031-.434-4.097-.203-7.864.212-11.702-6.549-.872-12.836-3.626-17.916-7.849-.602,2.223-3.912,11.936-2.996,14.049,1.733,3.994,9.874,10.533,21.675,10.533Z" fill="#0c0c0c" opacity=".22"></path>
            <path d="m369.799,97.372c-12.826.599-29.087-5.329-31.662-22.498l-2.323-15.492c-2.575-17.169,4.356-32.439,20.521-34.864h0c16.166-2.424,30.336,9.682,32.91,26.851l1.028,6.858c.212,1.412.443,3.967.451,7.122.016,6.294.016,15.868-3.309,22.799-3.139,6.544-9.423,8.84-17.618,9.223Z" fill="#ff9e85"></path>
            <g>
              <g>
                <circle id="e1_eye-7" data-name="e1_eye" cx="383.563" cy="60.76" r="1.782" fill="#0a0a0a"></circle>
                <g id="e1_n-4" data-name="e1_n">
                  <path d="m372.306,74.62c-.361,0-.67-.272-.708-.639-.041-.392.243-.742.635-.783l3.776-.395-2.324-7.542c-.116-.376.095-.775.472-.891.376-.116.775.095.891.471l2.579,8.371c.063.204.031.425-.087.603s-.308.294-.521.316l-4.638.485c-.025.003-.05.004-.074.004Z" fill="#0a0a0a"></path>
                </g>
                <g id="e1_m-2" data-name="e1_m">
                  <path d="m371.467,82.694c-6.463,0-8.386-3.905-8.472-4.088-.168-.356-.015-.781.34-.949.354-.168.777-.017.947.336.081.166,2.054,4.002,9.165,3.152.399-.049.746.233.793.623.047.391-.233.746-.623.793-.767.092-1.484.134-2.151.134Z" fill="#0a0a0a"></path>
                </g>
                <path id="e1_eb-7" data-name="e1_eb" d="m366.074,54.298c.171.531-1.761,1.325-4.477,2.053s-5.175,1.253-5.36.583c-.233-.846,1.791-2.838,4.508-3.566,2.717-.728,5.061.094,5.33.93Z" fill="#0a0a0a"></path>
                <circle id="e1_eye-8" data-name="e1_eye" cx="365.689" cy="61.897" r="1.783" fill="#0a0a0a"></circle>
              </g>
              <path id="e1_eb-8" data-name="e1_eb" d="m387.722,54.671c-.059.555-2.147.497-4.925.06-2.778-.437-5.239-.955-5.136-1.642.13-.868,2.499-1.928,5.277-1.491s4.877,2.201,4.784,3.074Z" fill="#0a0a0a"></path>
            </g>
            <path d="m339.925,79.954c-4.913.737-9.683-3.922-10.42-8.834-.737-4.913,2.84-8.219,7.752-8.956l3.025,2.912,3.866,14.245-4.224.633Z" fill="#ff9e85"></path>
            <path d="m342.22,71.447c.831-.039,1.476-.738,1.441-1.569-.225-5.369-.52-23.443,5.579-25.58,4.778-1.674,17.651,3.665,28.402.047,4.703-1.583,9.452-1.015,10.231,1.202.308.878,1.539-12.515-7.374-21.33-7.096-7.019-27.105-6.534-35.718-2.734-23.849,10.522-8.392,41.892-8.392,41.892l1.936,7.071c.187.683.822,1.144,1.529,1.111l2.365-.111Z" fill="#0c0c0c"></path>
            <ellipse cx="369.85" cy="24.386" rx="6.801" ry="10.01" transform="translate(13.252 125.486) rotate(-19.601)" fill="#0c0c0c"></ellipse>
          </g>
          <path d="m428.65,140.641c.12,8.29-3.12,17.61-4.2,30.23-.22,2.56-.74,8.2-1.43,15.55-1.13,12.17-2.73,29-4.13,44.17-17,8.96-36.37,14.03-56.93,14.03-26.43,0-50.89-8.38-70.89-22.61-.44-.33-.88-.65-1.32-.96-1.17-17.15-2.55-35.15-3.81-46.52-2.37-21.23-5.6-31.8-3.79-38.94.15-.62.34-1.21.58-1.78,5.21-12.64,21.8-18.28,33.04-19.8,6.86-.93,17.18-1.6,17.18-1.6,0,0,.87,17.68,21.7,18.66,28.36,1.34,26.47-18.66,26.61-18.66,4.59,0,29.6,3.34,35.85,7.42,1.09.71,2.09,1.46,3,2.24,6.44,5.45,8.45,12.25,8.54,18.57Z" fill="#383838"></path>
          <path d="m324.23,153.461l-33.16,68.55c-.44-.33-.88-.65-1.32-.96-12.83-9.41-23.75-21.24-32.1-34.84l24.5-50.62.97-2.01,41.11,19.88Z" fill="#383838"></path>
          <path d="m321.03,161.351l-30.16,60.51c-.2-.15-.39-.29-.59-.42l30.12-60.4c.09-.17.3-.25.48-.16.17.09.24.3.15.47Z" fill="#fff"></path>
          <path d="m473.95,171.551c-6.04,13.71-14.53,26.11-24.91,36.64l-26.02-21.77-33.05-27.66,30.14-36.69.09-.11,53.75,49.59Z" fill="#383838"></path>
          <path d="m423.421,186.688c.173-.008.318-.144.333-.321l1.717-20.13c.017-.194-.127-.364-.32-.381-.193-.012-.363.128-.38.32l-1.717,20.13c-.017.194.127.364.32.381.016.001.031.001.047,0Z" fill="#fff"></path>
        </g>
      </g>
      <g>
        <circle cx="937.877" cy="657.595" r="116.657" fill="#fff"></circle>
        <path d="m821.219,657.592c0,20.196,5.132,39.198,14.163,55.774,8.028,14.709,19.129,27.5,32.441,37.509,10.225,7.697,21.758,13.744,34.206,17.745,11.292,3.658,23.334,5.627,35.845,5.627,32.161,0,61.287-13.02,82.385-34.067,21.174-21.123,34.27-50.325,34.27-82.588,0-64.424-52.23-116.655-116.655-116.655-64.424,0-116.655,52.23-116.655,116.655Z" fill="#367cff" opacity=".09"></path>
        <g>
          <g>
            <g>
              <path d="m992.156,591.476c-.976,22.536,1.537,30.741,6.38,45.17,4.267,12.713-34.164,1.154-54.111-1.525l15.286-51.806s32.788.247,32.445,8.161Z" fill="#0a0a0a"></path>
              <path d="m921.465,585.64c-4.911,22.016-5.278,25.62-13.456,39.58-6.372,10.876,26.483,11.288,46.441,13.882l-1.304-53.998s-29.955-7.195-31.68.536Z" fill="#0a0a0a"></path>
            </g>
            <g>
              <path id="sk-5" data-name="sk" d="m927.316,645.028c.124-.016,1.501,22.83,28.042,20.838,18.374-1.376,24.925-20.871,25.346-20.871-1.981-.421-5.317-1.033-6.197-1.503-2.893-1.555-6.473-3.172-7.406-8.791-.537-3.238.374-19.806.094-23.082l-28.204,6.295c.394,6.92,3.152,22.962-6.515,25.801-1.609.47-3.341.901-5.16,1.312Z" fill="#ff9e85"></path>
              <path id="sh-5" data-name="sh" d="m938.596,637.161c.4-1.275.637-2.384.848-4.377.378-3.565.177-6.842-.184-10.181,5.698-.758,11.168-3.155,15.588-6.829.524,1.934,3.404,10.385,2.606,12.223-1.507,3.475-8.591,9.164-18.858,9.164Z" fill="#0c0c0c" opacity=".22"></path>
              <path d="m942.961,629.97c11.131.947,24.212-3.667,27.021-18.508l3.162-13.392c2.809-14.842-2.709-28.348-16.684-30.993h0c-13.974-2.645-26.696,7.41-29.505,22.252l-1.122,5.929c-1.078,5.695-2.732,33.023,17.128,34.713Z" fill="#ff9e85"></path>
            </g>
            <path d="m987.047,601.602l-21.586,4.227c-8.628-8.844-14.33-25.708-14.33-25.708,0,0-23.01,12.279-30.742,10.812,0,0,2.348-40.069,43.139-33.102,13.243,2.262,27.881,14.658,28.644,32.52.562,13.135-5.125,11.25-5.125,11.25Z" fill="#0a0a0a"></path>
            <g>
              <path id="e1_eb-9" data-name="e1_eb" d="m926.983,591.167c.088.514,2.032.335,4.597-.238s4.829-1.203,4.692-1.838c-.173-.802-2.403-.984-4.968-.411-2.565.573-4.459,1.679-4.321,2.487Z" fill="#0a0a0a"></path>
              <g>
                <circle id="e1_eye-9" data-name="e1_eye" cx="932.492" cy="595.713" r="1.666" transform="translate(265.419 1478.565) rotate(-85.498)" fill="#0a0a0a"></circle>
                <g id="e1_n-5" data-name="e1_n">
                  <path d="m937.682,608.716c.336.026.644-.205.707-.543.067-.362-.172-.709-.534-.776l-3.489-.645,2.719-6.856c.135-.342-.032-.729-.374-.865-.342-.135-.729.032-.865.374l-3.017,7.61c-.073.185-.06.394.037.568s.266.296.462.333l4.286.792c.023.004.046.007.069.009Z" fill="#0a0a0a"></path>
                </g>
                <g id="e1_m-3" data-name="e1_m">
                  <path d="m940.184,616.929c6.021.474,8.099-3.023,8.193-3.187.182-.319.072-.726-.248-.909-.317-.182-.723-.072-.907.244-.087.149-2.207,3.577-8.77,2.264-.368-.075-.712.162-.785.523-.072.361.162.712.522.784.708.142,1.373.233,1.994.282Z" fill="#0a0a0a"></path>
                </g>
                <path id="e1_eb-10" data-name="e1_eb" d="m945.701,590.633c-.198.482,1.543,1.364,4.021,2.241s4.73,1.547,4.951.936c.279-.771-1.513-2.111-3.99-2.988s-4.67-.948-4.982-.189Z" fill="#0a0a0a"></path>
                <circle id="e1_eye-10" data-name="e1_eye" cx="949.23" cy="597.628" r="1.666" transform="translate(278.934 1497.017) rotate(-85.498)" fill="#0a0a0a"></circle>
              </g>
            </g>
            <path d="m968.885,615.819c4.247.804,8.549-3.088,9.353-7.335.804-4.247-2.196-7.24-6.442-8.044l-3.802-.708-2.76,15.396,3.651.691Z" fill="#ff9e85"></path>
            <path d="m966.358,594.047c-.093,1.399-4.012,6.145-3.626,7.493.608,2.126,3.562,5.709,4.966,5.894,2.473.326.666-4.227,3.884-6.389.489-.003.987.03,1.483.136,1.998.399,3.657,1.542,4.746,3.083l.291-6.352-11.744-3.865Z" fill="#0a0a0a"></path>
          </g>
          <path d="m883.674,760.912c-4.586-2.002-8.017-4.14-15.848-10.041-5.655-4.243-10.909-8.996-15.689-14.187l40.21-76.515,1.748-3.324,36.268,19.068-31.46,59.87-.146.264.273,1.065" fill="#ea394a"></path>
          <path d="m1017.404,699.361c-1.056,11.346-1.284,28.992-1.211,44.681-14.426,13.099-32.168,22.529-51.137,27.016-20.615,4.95-42.662,4.135-62.838-2.368-2.385-23.661-5.932-58.43-7.931-79.838-2.026-22.176-7.984-29.501,8.277-40.12,8.96-4.562,23.165-4.962,29.548-4.962-2.167,21.02,42.132,23.607,43.234,0,33.129,3.098,48.468,3.868,42.059,55.59Z" fill="#ea394a"></path>
          <path d="m898.202,727.043c.011,0,.022,0,.034-.003.149-.02.254-.159.233-.308l-3.128-31.514c-.02-.15-.153-.256-.308-.233-.149.02-.254.159-.233.308l3.128,31.514c.019.138.139.238.274.236Z" fill="#0c0c0c"></path>
          <g>
            <rect x="862.182" y="703.043" width="31.929" height="39.159" fill="#fff"></rect>
            <path d="m881.036,722.622c0-7.21,5.866-13.075,13.075-13.075,7.21,0,13.075,5.866,13.075,13.075s-5.866,13.075-13.075,13.075c-7.21,0-13.075-5.866-13.075-13.075Zm5.355,0c0,4.257,3.463,7.72,7.72,7.72,4.257,0,7.72-3.463,7.72-7.72s-3.463-7.72-7.72-7.72c-4.257,0-7.72,3.463-7.72,7.72Z" fill="#fff"></path>
          </g>
          <g id="ha">
            <path d="m893.857,727.469c.228-1.407,1.429-2.381,2.777-2.403-.018-.027-.032-.057-.039-.09l-.951-.206c-1.352-.292-2.395-1.475-2.362-2.858.043-1.861,1.742-3.13,3.467-2.758l2.243.485c0-.009-.002-.017,0-.025.003-.019.013-.035.02-.052-1.178-.555-1.865-1.86-1.579-3.187.246-1.659,2.236-2.205,3.695-1.89l5.81,1.04-1.961-1.3c-1.256-.907-1.702-2.661-.861-3.962.896-1.388,2.759-1.726,4.081-.771l23.419,26.804-5.196-2.358c-3.301,4.855-9.219,7.221-14.958,5.982l-12.703-2.768c-1.352-.292-2.395-1.475-2.362-2.858.031-1.335.915-2.362,2.049-2.7-.017-.043-.027-.088-.019-.137.014-.092.076-.161.154-.198l-2.344-.506c-1.514-.327-2.627-1.754-2.379-3.284Z" fill="#ff9e85"></path>
            <path id="sh-6" data-name="sh" d="m903.234,720.587c.105-.022.191-.106.21-.218.025-.147-.074-.285-.22-.31l-3.923-.664c-.146-.024-.285.074-.31.22-.025.147.074.285.22.31l3.923.664c.034.006.068.005.1-.002Z" fill="#0c0c0c" opacity=".2"></path>
            <path id="sh-7" data-name="sh" d="m902.287,726.136c.104-.022.19-.105.209-.216.026-.146-.072-.286-.218-.312l-5.374-.954c-.145-.026-.286.071-.312.218-.026.146.072.286.218.312l5.374.954c.035.006.069.005.102-.002Z" fill="#0c0c0c" opacity=".2"></path>
            <path id="sh-8" data-name="sh" d="m901.296,732.152c.106-.022.193-.108.211-.222.022-.147-.078-.284-.225-.307l-2.549-.391c-.146-.022-.284.078-.307.225-.022.147.078.284.225.307l2.549.391c.033.005.065.004.096-.003Z" fill="#0c0c0c" opacity=".2"></path>
          </g>
          <path d="m1033.667,724.156c-14.205,20.544-35.178,36.257-58.877,44.135l-.009-.009c-5.301-1.037-55.859-20.995-62.547-22.311l7.318-34.139c18.791,3.739,53.06,18.152,71.958,21.906l-13.332-60.447c-1.876-11.163,5.645-21.744,16.818-23.62,11.199-1.875,21.746,5.692,23.611,16.818l15.061,57.666Z" fill="#ea394a"></path>
          <g id="b_4_st-3" data-name="b_4_st">
            <path d="m1005.832,738.187c.133,0,.25-.097.27-.233.022-.149-.081-.288-.23-.311l-14.208-4.82c-.155-.023-.289.081-.311.23-.022.149.081.288.23.311l14.208,4.82c.014.002.027.003.041.003Z" fill="#0c0c0c"></path>
          </g>
          <g id="b_4_st-4" data-name="b_4_st">
            <path d="m991.883,733.055c.009.082-.018.173-.073.237-.064.055-.146.091-.237.073l-71.566-21.123-7.172,33.601,61.627,22.547c-.191.064-.391.128-.583.192-.137.045-.273.091-.419.127l-61.026-22.411c-.146-.036-.228-.182-.2-.328l7.318-34.139c.018-.073.064-.128.128-.164.064-.046.136-.055.209-.036l71.393,21.15-8.078-33.321c-.018-.146.082-.291.228-.309.155-.028.291.072.319.218l8.133,33.685Z" fill="#0c0c0c"></path>
          </g>
        </g>
      </g>
      <path d="m58.667,689.509c-.065,0-.13-.013-.194-.039-.254-.107-.374-.4-.267-.655l19.591-46.572c.107-.254.401-.371.655-.267.254.107.374.4.267.655l-19.591,46.572c-.081.19-.266.306-.461.306Z" fill="#0c0c0c"></path>
      <path d="m173.965,690.038l-.022.002c-.276.012-.51-.202-.523-.477l-2.184-47.634c-.012-.275.213-.497.476-.523.276-.012.51.202.523.477l2.184,47.634c.012.269-.189.497-.455.521Z" fill="#0c0c0c"></path>
    </g>
  </g>
</svg>