<svg id="Layer_2" data-name="Layer 2" xmlns="http://www.w3.org/2000/svg" viewBox="0 0 983.44 715.548" style="width: 100%; height: 100%;">
  <g id="Layer_2-2" data-name="Layer 2">
    <g>
      <g>
        <g fill="none" opacity=".2">
          <circle cx="812.379" cy="226.063" r="33.333" fill="#0cbc8b"></circle>
          <circle cx="799.588" cy="238.939" r="5.106" fill="#fff" opacity=".7"></circle>
          <g>
            <path d="m812.322,174.757c-2.807,0-5.082,2.275-5.082,5.082,0,2.203,1.402,4.078,3.362,4.783v17.548h3.542v-17.586c1.906-.733,3.26-2.58,3.26-4.744,0-2.807-2.275-5.082-5.082-5.082Z" fill="#0cbc8b"></path>
            <path d="m814.042,267.503v-17.548h-3.542v17.586c-1.906.733-3.26,2.58-3.26,4.744,0,2.807,2.275,5.082,5.082,5.082s5.082-2.275,5.082-5.082c0-2.203-1.402-4.078-3.362-4.783Z" fill="#0cbc8b"></path>
            <path d="m858.545,220.98c-2.203,0-4.078,1.402-4.783,3.362h-17.548v3.542h17.586c.733,1.906,2.58,3.26,4.744,3.26,2.807,0,5.082-2.275,5.082-5.082s-2.275-5.082-5.082-5.082Z" fill="#0cbc8b"></path>
            <path d="m770.882,227.782h17.548v-3.542h-17.587c-.733-1.906-2.58-3.26-4.744-3.26-2.807,0-5.082,2.275-5.082,5.082s2.275,5.082,5.082,5.082c2.203,0,4.078-1.402,4.783-3.362Z" fill="#0cbc8b"></path>
            <path d="m828.001,207.952l2.505,2.505,12.439-12.439c1.866.829,4.127.483,5.657-1.047,1.985-1.985,1.985-5.203,0-7.187-1.985-1.985-5.203-1.985-7.187,0-1.557,1.557-1.887,3.872-1,5.756l-12.412,12.412Z" fill="#0cbc8b"></path>
            <path d="m796.644,244.173l-2.505-2.505-12.439,12.439c-1.866-.829-4.127-.484-5.657,1.047-1.985,1.985-1.985,5.203,0,7.187,1.985,1.985,5.203,1.985,7.187,0,1.557-1.557,1.887-3.871,1-5.756l12.412-12.412Z" fill="#0cbc8b"></path>
            <path d="m842.845,254.153l-12.412-12.412-2.505,2.505,12.439,12.439c-.829,1.866-.483,4.127,1.047,5.657,1.985,1.985,5.203,1.985,7.187,0,1.985-1.985,1.985-5.203,0-7.187-1.557-1.557-3.872-1.887-5.756-1Z" fill="#0cbc8b"></path>
            <path d="m781.8,197.972l12.412,12.412,2.505-2.505-12.439-12.439c.829-1.866.484-4.127-1.046-5.657-1.985-1.985-5.203-1.985-7.187,0s-1.985,5.203,0,7.187c1.557,1.557,3.871,1.887,5.756,1.001Z" fill="#0cbc8b"></path>
            <path d="m823.303,204.765l6.847-16.199c2.041.067,4.007-1.107,4.85-3.101,1.093-2.585-.117-5.567-2.702-6.66-2.585-1.093-5.567.117-6.66,2.702-.858,2.029-.296,4.302,1.235,5.715l-6.832,16.163,3.263,1.379Z" fill="#0cbc8b"></path>
            <path d="m801.341,247.36l-6.847,16.199c-2.041-.067-4.007,1.107-4.85,3.101-1.093,2.585.117,5.567,2.702,6.66,2.585,1.093,5.567-.117,6.66-2.702.858-2.029.296-4.302-1.235-5.715l6.832-16.163-3.263-1.379Z" fill="#0cbc8b"></path>
            <path d="m856.877,239.378c-2.029-.858-4.302-.296-5.715,1.235l-16.163-6.832-1.379,3.263,16.199,6.847c-.067,2.041,1.107,4.007,3.101,4.85,2.585,1.093,5.567-.117,6.66-2.702,1.093-2.585-.117-5.567-2.702-6.66Z" fill="#0cbc8b"></path>
            <path d="m767.768,212.747c2.029.858,4.302.296,5.715-1.235l16.163,6.832,1.379-3.263-16.199-6.847c.067-2.041-1.107-4.007-3.101-4.85-2.585-1.093-5.567.117-6.66,2.702-1.093,2.585.117,5.567,2.702,6.66Z" fill="#0cbc8b"></path>
            <path d="m850.075,208.887l-16.26,6.598,1.332,3.282,16.296-6.613c1.396,1.491,3.616,2.051,5.622,1.237,2.601-1.055,3.854-4.019,2.798-6.62-1.055-2.601-4.019-3.854-6.62-2.798-2.041.828-3.252,2.833-3.168,4.914Z" fill="#0cbc8b"></path>
            <path d="m774.57,243.238l16.26-6.598-1.332-3.282-16.296,6.613c-1.396-1.491-3.616-2.051-5.622-1.237-2.601,1.055-3.854,4.019-2.798,6.62,1.055,2.601,4.019,3.854,6.62,2.798,2.041-.828,3.252-2.833,3.168-4.914Z" fill="#0cbc8b"></path>
            <path d="m829.497,263.815l-6.598-16.26-3.282,1.332,6.613,16.296c-1.491,1.396-2.051,3.616-1.237,5.622,1.055,2.601,4.019,3.854,6.62,2.798,2.601-1.055,3.854-4.019,2.798-6.62-.828-2.041-2.833-3.252-4.914-3.168Z" fill="#0cbc8b"></path>
            <path d="m799.651,181.32c-1.055-2.601-4.019-3.854-6.62-2.798-2.601,1.055-3.854,4.019-2.798,6.62.828,2.041,2.833,3.252,4.914,3.168l6.598,16.26,3.282-1.332-6.613-16.296c1.491-1.396,2.051-3.616,1.237-5.622Z" fill="#0cbc8b"></path>
          </g>
          <circle cx="824.731" cy="216.445" r="12.465" fill="#fff" opacity=".7"></circle>
        </g>
        <g>
          <path d="m812.322,289.98c-35.244,0-63.917-28.673-63.917-63.917s28.673-63.917,63.917-63.917,63.917,28.673,63.917,63.917-28.673,63.917-63.917,63.917Zm0-123.963c-33.109,0-60.046,26.936-60.046,60.046s26.936,60.046,60.046,60.046,60.046-26.936,60.046-60.046-26.936-60.046-60.046-60.046Z" fill="#0cbc8b"></path>
          <rect x="750.705" y="224.415" width="123.958" height="3.872" transform="translate(131.033 723.384) rotate(-51.662)" fill="#0cbc8b"></rect>
        </g>
        <g fill="none" opacity=".5">
          <path d="m812.322,289.98c-35.244,0-63.917-28.673-63.917-63.917s28.673-63.917,63.917-63.917,63.917,28.673,63.917,63.917-28.673,63.917-63.917,63.917Zm0-123.963c-33.109,0-60.046,26.936-60.046,60.046s26.936,60.046,60.046,60.046,60.046-26.936,60.046-60.046-26.936-60.046-60.046-60.046Z" fill="#fff"></path>
          <rect x="750.705" y="224.415" width="123.958" height="3.872" transform="translate(131.033 723.384) rotate(-51.662)" fill="#fff"></rect>
        </g>
      </g>
      <g>
        <g fill="none" opacity=".2">
          <circle cx="562.138" cy="94.527" r="48.133" fill="#0cbc8b"></circle>
          <circle cx="543.667" cy="113.12" r="7.373" fill="#fff" opacity=".7"></circle>
          <g>
            <path d="m562.055,20.441c-4.053,0-7.339,3.286-7.339,7.339,0,3.181,2.025,5.889,4.855,6.907v25.339h5.115v-25.395c2.753-1.058,4.707-3.725,4.707-6.851,0-4.053-3.286-7.339-7.339-7.339Z" fill="#0cbc8b"></path>
            <path d="m564.539,154.366v-25.339h-5.115v25.395c-2.753,1.058-4.707,3.725-4.707,6.851,0,4.053,3.286,7.339,7.339,7.339s7.339-3.286,7.339-7.339c0-3.181-2.025-5.889-4.855-6.907Z" fill="#0cbc8b"></path>
            <path d="m628.802,87.188c-3.181,0-5.889,2.025-6.907,4.855h-25.339v5.115h25.395c1.058,2.753,3.725,4.707,6.851,4.707,4.053,0,7.339-3.286,7.339-7.339s-3.286-7.339-7.339-7.339Z" fill="#0cbc8b"></path>
            <path d="m502.216,97.01h25.339v-5.115h-25.395c-1.058-2.753-3.725-4.707-6.851-4.707-4.053,0-7.339,3.286-7.339,7.339s3.286,7.339,7.339,7.339c3.181,0,5.889-2.025,6.907-4.855Z" fill="#0cbc8b"></path>
            <path d="m584.695,68.375l3.617,3.617,17.962-17.961c2.694,1.197,5.959.698,8.168-1.511,2.866-2.866,2.866-7.513,0-10.379-2.866-2.866-7.513-2.866-10.378,0-2.249,2.249-2.725,5.591-1.445,8.311l-17.923,17.923Z" fill="#0cbc8b"></path>
            <path d="m539.416,120.678l-3.617-3.617-17.961,17.962c-2.694-1.197-5.959-.698-8.168,1.511-2.866,2.866-2.866,7.512,0,10.378,2.866,2.866,7.512,2.866,10.379,0,2.249-2.249,2.725-5.59,1.445-8.311l17.923-17.923Z" fill="#0cbc8b"></path>
            <path d="m606.13,135.09l-17.923-17.923-3.617,3.617,17.962,17.962c-1.197,2.694-.698,5.959,1.511,8.168,2.866,2.866,7.512,2.866,10.378,0,2.866-2.866,2.866-7.513,0-10.378-2.249-2.249-5.591-2.725-8.311-1.445Z" fill="#0cbc8b"></path>
            <path d="m517.981,53.964l17.923,17.923,3.617-3.617-17.962-17.961c1.197-2.694.698-5.959-1.511-8.168-2.866-2.866-7.513-2.866-10.379,0-2.866,2.866-2.866,7.513,0,10.379,2.249,2.249,5.59,2.725,8.311,1.445Z" fill="#0cbc8b"></path>
            <path d="m577.912,63.773l9.888-23.391c2.947.097,5.786-1.599,7.003-4.477,1.578-3.733-.169-8.039-3.902-9.617-3.733-1.578-8.039.169-9.617,3.902-1.239,2.93-.428,6.213,1.783,8.252l-9.866,23.34,4.711,1.992Z" fill="#0cbc8b"></path>
            <path d="m546.199,125.28l-9.887,23.391c-2.947-.097-5.786,1.599-7.003,4.477-1.578,3.733.169,8.039,3.902,9.617,3.733,1.578,8.039-.169,9.617-3.902,1.239-2.93.428-6.212-1.783-8.252l9.865-23.339-4.711-1.992Z" fill="#0cbc8b"></path>
            <path d="m626.393,113.754c-2.93-1.239-6.212-.428-8.252,1.783l-23.34-9.865-1.991,4.711,23.391,9.887c-.097,2.947,1.599,5.786,4.477,7.003,3.733,1.578,8.039-.169,9.617-3.902,1.578-3.733-.169-8.039-3.902-9.617Z" fill="#0cbc8b"></path>
            <path d="m497.719,75.299c2.93,1.239,6.212.428,8.252-1.783l23.339,9.866,1.992-4.711-23.391-9.888c.097-2.947-1.599-5.786-4.477-7.003-3.733-1.578-8.039.169-9.617,3.902-1.578,3.733.169,8.039,3.902,9.617Z" fill="#0cbc8b"></path>
            <path d="m616.57,69.726l-23.479,9.528,1.923,4.74,23.531-9.549c2.016,2.153,5.222,2.961,8.118,1.786,3.756-1.524,5.565-5.804,4.041-9.56-1.524-3.756-5.804-5.565-9.56-4.041-2.948,1.196-4.696,4.09-4.574,7.096Z" fill="#0cbc8b"></path>
            <path d="m507.541,119.328l23.48-9.527-1.923-4.74-23.532,9.549c-2.015-2.153-5.222-2.961-8.118-1.786-3.756,1.524-5.565,5.804-4.041,9.56,1.524,3.756,5.804,5.565,9.56,4.041,2.948-1.196,4.695-4.09,4.574-7.096Z" fill="#0cbc8b"></path>
            <path d="m586.857,149.041l-9.528-23.479-4.74,1.923,9.549,23.531c-2.153,2.016-2.961,5.222-1.786,8.118,1.524,3.756,5.804,5.565,9.56,4.041,3.756-1.524,5.565-5.804,4.041-9.56-1.196-2.948-4.09-4.696-7.096-4.574Z" fill="#0cbc8b"></path>
            <path d="m543.759,29.919c-1.524-3.756-5.804-5.565-9.56-4.041-3.756,1.524-5.565,5.804-4.041,9.56,1.196,2.948,4.09,4.696,7.096,4.574l9.527,23.48,4.74-1.923-9.549-23.532c2.153-2.015,2.961-5.222,1.786-8.118Z" fill="#0cbc8b"></path>
          </g>
          <circle cx="579.973" cy="80.639" r="18" fill="#fff" opacity=".7"></circle>
        </g>
        <g>
          <path d="m562.056,189.053c-52.122,0-94.527-42.405-94.527-94.527S509.934,0,562.056,0s94.527,42.405,94.527,94.527-42.405,94.527-94.527,94.527Zm0-183.327c-48.965,0-88.801,39.836-88.801,88.801s39.836,88.801,88.801,88.801,88.801-39.836,88.801-88.801S611.02,5.726,562.056,5.726Z" fill="#0cbc8b"></path>
          <rect x="470.931" y="92.09" width="183.319" height="5.726" transform="translate(139.136 477.329) rotate(-51.662)" fill="#0cbc8b"></rect>
        </g>
        <g fill="none" opacity=".5">
          <path d="m562.056,189.053c-52.122,0-94.527-42.405-94.527-94.527S509.934,0,562.056,0s94.527,42.405,94.527,94.527-42.405,94.527-94.527,94.527Zm0-183.327c-48.965,0-88.801,39.836-88.801,88.801s39.836,88.801,88.801,88.801,88.801-39.836,88.801-88.801S611.02,5.726,562.056,5.726Z" fill="#fff"></path>
          <rect x="470.931" y="92.09" width="183.319" height="5.726" transform="translate(139.136 477.329) rotate(-51.662)" fill="#fff"></rect>
        </g>
      </g>
      <g>
        <g fill="none" opacity=".2">
          <circle cx="305.127" cy="563.566" r="37.906" fill="#0cbc8b"></circle>
          <circle cx="290.581" cy="578.209" r="5.806" fill="#fff" opacity=".7"></circle>
          <g>
            <path d="m305.062,505.222c-3.192,0-5.779,2.588-5.779,5.779,0,2.505,1.594,4.638,3.824,5.439v19.955h4.028v-19.999c2.168-.833,3.707-2.934,3.707-5.395,0-3.192-2.588-5.779-5.779-5.779Z" fill="#0cbc8b"></path>
            <path d="m307.018,610.691v-19.955h-4.028v19.999c-2.168.833-3.707,2.934-3.707,5.395,0,3.192,2.588,5.779,5.779,5.779s5.779-2.588,5.779-5.779c0-2.505-1.595-4.638-3.824-5.439Z" fill="#0cbc8b"></path>
            <path d="m357.627,557.787c-2.505,0-4.638,1.594-5.439,3.824h-19.955v4.028h19.999c.833,2.168,2.934,3.707,5.395,3.707,3.192,0,5.779-2.588,5.779-5.779s-2.588-5.779-5.779-5.779Z" fill="#0cbc8b"></path>
            <path d="m257.937,565.522h19.955v-4.028h-19.999c-.833-2.168-2.934-3.707-5.395-3.707-3.192,0-5.779,2.588-5.779,5.779s2.588,5.779,5.779,5.779c2.505,0,4.638-1.595,5.439-3.824Z" fill="#0cbc8b"></path>
            <path d="m322.892,542.971l2.848,2.848,14.145-14.145c2.122.942,4.693.55,6.433-1.19,2.257-2.257,2.257-5.916,0-8.173s-5.916-2.257-8.173,0c-1.771,1.771-2.146,4.403-1.138,6.546l-14.115,14.115Z" fill="#0cbc8b"></path>
            <path d="m287.233,584.161l-2.848-2.848-14.145,14.145c-2.122-.943-4.693-.55-6.433,1.19-2.257,2.257-2.257,5.916,0,8.173s5.916,2.257,8.173,0c1.771-1.771,2.146-4.403,1.138-6.545l14.115-14.115Z" fill="#0cbc8b"></path>
            <path d="m339.772,595.511l-14.115-14.115-2.848,2.848,14.145,14.145c-.942,2.122-.55,4.693,1.19,6.433,2.257,2.257,5.916,2.257,8.173,0,2.257-2.257,2.257-5.916,0-8.173-1.771-1.771-4.403-2.146-6.545-1.138Z" fill="#0cbc8b"></path>
            <path d="m270.352,531.622l14.115,14.115,2.848-2.848-14.145-14.145c.943-2.122.55-4.693-1.19-6.433-2.257-2.257-5.916-2.257-8.173,0-2.257,2.257-2.257,5.916,0,8.173,1.771,1.771,4.403,2.146,6.545,1.138Z" fill="#0cbc8b"></path>
            <path d="m317.55,539.347l7.787-18.421c2.321.076,4.557-1.259,5.515-3.526,1.243-2.94-.133-6.331-3.073-7.574-2.94-1.243-6.331.133-7.574,3.073-.975,2.308-.337,4.893,1.404,6.499l-7.769,18.381,3.71,1.568Z" fill="#0cbc8b"></path>
            <path d="m292.575,587.786l-7.787,18.421c-2.321-.076-4.557,1.259-5.515,3.526-1.243,2.94.133,6.331,3.073,7.574,2.94,1.243,6.331-.133,7.574-3.073.975-2.308.337-4.892-1.404-6.499l7.769-18.38-3.71-1.568Z" fill="#0cbc8b"></path>
            <path d="m355.729,578.708c-2.308-.975-4.892-.337-6.499,1.404l-18.381-7.769-1.568,3.71,18.421,7.786c-.077,2.321,1.259,4.557,3.526,5.515,2.94,1.243,6.331-.133,7.574-3.073,1.243-2.94-.133-6.331-3.073-7.574Z" fill="#0cbc8b"></path>
            <path d="m254.395,548.424c2.308.975,4.892.337,6.499-1.404l18.38,7.769,1.568-3.71-18.421-7.787c.076-2.321-1.259-4.557-3.526-5.515-2.94-1.243-6.331.133-7.574,3.073-1.243,2.94.133,6.331,3.073,7.574Z" fill="#0cbc8b"></path>
            <path d="m347.994,544.034l-18.491,7.503,1.515,3.733,18.532-7.52c1.587,1.695,4.112,2.332,6.393,1.406,2.958-1.2,4.382-4.571,3.182-7.528-1.2-2.958-4.571-4.382-7.528-3.182-2.321.942-3.698,3.221-3.603,5.588Z" fill="#0cbc8b"></path>
            <path d="m262.13,583.098l18.491-7.503-1.515-3.733-18.532,7.52c-1.587-1.695-4.112-2.332-6.393-1.406-2.958,1.2-4.382,4.571-3.182,7.528,1.2,2.958,4.571,4.382,7.528,3.182,2.321-.942,3.698-3.221,3.602-5.588Z" fill="#0cbc8b"></path>
            <path d="m324.594,606.498l-7.503-18.491-3.733,1.515,7.52,18.532c-1.695,1.587-2.332,4.112-1.406,6.393,1.2,2.958,4.571,4.382,7.528,3.182,2.958-1.2,4.382-4.571,3.182-7.528-.942-2.322-3.221-3.698-5.588-3.603Z" fill="#0cbc8b"></path>
            <path d="m290.653,512.685c-1.2-2.958-4.571-4.382-7.528-3.182-2.958,1.2-4.382,4.571-3.182,7.528.942,2.321,3.221,3.698,5.588,3.602l7.503,18.491,3.733-1.515-7.52-18.532c1.695-1.587,2.332-4.112,1.406-6.393Z" fill="#0cbc8b"></path>
          </g>
          <circle cx="319.173" cy="552.629" r="14.176" fill="#fff" opacity=".7"></circle>
        </g>
        <g>
          <path d="m305.062,646.108c-45.514,0-82.542-37.028-82.542-82.542s37.028-82.542,82.542-82.542,82.542,37.028,82.542,82.542-37.028,82.542-82.542,82.542Zm0-160.084c-42.757,0-77.542,34.785-77.542,77.542s34.785,77.542,77.542,77.542,77.542-34.785,77.542-77.542-34.785-77.542-77.542-77.542Z" fill="#0cbc8b"></path>
          <rect x="225.492" y="561.438" width="160.077" height="5" transform="translate(-326.323 453.772) rotate(-51.662)" fill="#0cbc8b"></rect>
        </g>
        <g fill="none" opacity=".5">
          <path d="m305.062,646.108c-45.514,0-82.542-37.028-82.542-82.542s37.028-82.542,82.542-82.542,82.542,37.028,82.542,82.542-37.028,82.542-82.542,82.542Zm0-160.084c-42.757,0-77.542,34.785-77.542,77.542s34.785,77.542,77.542,77.542,77.542-34.785,77.542-77.542-34.785-77.542-77.542-77.542Z" fill="#fff"></path>
          <rect x="225.492" y="561.438" width="160.077" height="5" transform="translate(-326.323 453.772) rotate(-51.662)" fill="#fff"></rect>
        </g>
      </g>
      <g>
        <path d="m460.41,306.626c0,52.98-17.9,101.78-47.98,140.68H47.98C17.9,408.407,0,359.607,0,306.626,0,179.486,103.07,76.427,230.21,76.427s230.2,103.06,230.2,230.2Z" fill="#367cff" opacity=".1"></path>
        <g>
          <path d="m511.575,257.171c-.679-3.103-4.512-3.877-7.227-3.093l-12.424,3.085-2.106-7.325c-.436-3.152-3.131-5.671-6.308-5.509-3.584.183-6.168,3.377-5.687,6.854h0c.386,5.33.08,8.979-4.391,11.905-6.333,4.146-23.116,15.039-28.444,17.062-9.112,3.46,6.057,16.264,6.057,16.264,6.868,8.747,18.357,13.525,29.041,10.439l35.024-11.125c2.454-.709,4.261-2.971,4.108-5.52-.158-2.62-6.928-30.565-7.643-33.037Z" fill="#367cff"></path>
          <g>
            <path d="m511.575,257.171c-.679-3.103-4.512-3.877-7.227-3.093l-12.424,3.085-2.106-7.325c-.436-3.152-3.131-5.671-6.308-5.509-3.584.183-6.168,3.377-5.687,6.854h0c.386,5.33.08,8.979-4.391,11.905-6.333,4.146-23.116,15.039-28.444,17.062-9.112,3.46,6.057,16.264,6.057,16.264,6.868,8.747,18.357,13.525,29.041,10.439l35.024-11.125c2.454-.709,4.261-2.971,4.108-5.52-.158-2.62-6.928-30.565-7.643-33.037Z" fill="#fff" opacity=".5"></path>
            <path d="m512.856,284.782l-12.181,3.512c-1.453.143-2.765-.04-3.942-.695-1.193-.666-2.026-1.77-2.345-3.109-.57-2.401,1.472-5.248,3.913-6.419l-.031-.05,11.67-3.429c.266-.072.424-.347.352-.614-.068-.243-.348-.424-.614-.352l-12.864,3.712c-.069.019-.13.052-.183.095-.923.111-1.847-.022-2.685-.488-1.193-.666-2.026-1.77-2.344-3.109-.571-2.401,1.01-5.134,3.493-5.956l-.006-.062,11.915-3.451c.266-.072.424-.347.352-.614-.048-.256-.348-.424-.614-.352l-11.746,3.411-.005-.058c-1.279.423-2.654.19-3.83-.464-1.193-.665-2.026-1.768-2.344-3.108-.571-2.401.939-4.931,3.397-5.749l-.274-.961c-2.987.991-4.786,4.039-4.096,6.941.383,1.615,1.389,2.946,2.829,3.75.29.162.592.298.902.407.535.188,1.095.283,1.658.31-2.052,1.363-3.169,3.815-2.604,6.187.383,1.615,1.388,2.947,2.829,3.751.29.162.592.298.902.407.535.188,1.094.283,1.657.31-2.052,1.363-3.168,3.814-2.604,6.187.384,1.615,1.389,2.947,2.83,3.751.29.162.592.297.901.406.535.188,1.094.283,1.658.31-2.052,1.363-3.168,3.814-2.605,6.188.384,1.615,1.389,2.946,2.83,3.75.291.162.592.298.903.407,1.206.424,2.531.443,3.747.04l-.299-.954c-1.279.423-2.688.289-3.864-.367-1.193-.665-2.026-1.769-2.344-3.108-.571-2.402.939-4.932,3.422-5.755l.004-.051,12.519-3.592c.266-.072.424-.347.351-.614-.078-.267-.347-.423-.614-.351Z" fill="#0c0c0c" opacity=".2"></path>
          </g>
          <g>
            <path d="m122.861,101s-2.665,32.177-10.101,43.746c-21.405,33.307-28.06,71.058-7.487,91.168,20.574,20.11,153.827,22.534,164.655-22.784,9.116-38.153-9.056-42.564-12.985-74.222-1.778-14.325-6.818-44.383-6.818-44.383" fill="#0a0a0a"></path>
            <path id="sk" d="m235.907,205.863c-.23-.03-2.783,42.33-51.993,38.637-34.068-2.552-46.215-38.697-46.996-38.697,3.673-.781,9.858-1.916,11.49-2.787,5.364-2.882,12.002-5.882,13.731-16.299.997-6.004-.694-36.722-.174-42.797l52.294,11.672c-.731,12.83-5.845,42.575,12.08,47.839,2.982.871,6.195,1.671,9.568,2.432Z" fill="#ff9e85"></path>
            <path id="sh" d="m214.993,191.275c-.741-2.364-1.181-4.42-1.573-8.116-.7-6.61-.328-12.686.342-18.877-10.564-1.406-20.707-5.85-28.902-12.662-.971,3.586-6.311,19.256-4.833,22.664,2.795,6.442,15.929,16.992,34.966,16.992Z" fill="#0c0c0c" opacity=".5"></path>
            <path d="m208.319,177.678c-20.647,1.662-47.187-7.014-52.27-34.555l-4.586-24.851c-5.083-27.542,5.263-52.538,31.195-57.324h0c25.932-4.786,49.435,13.964,54.518,41.506l2.03,11.002c1.95,10.568,5.951,61.257-30.888,64.222Z" fill="#ff9e85"></path>
            <path id="e1_eb" d="m238.358,102.972c-.109,1.024-3.962.917-9.089.111-5.127-.806-9.667-1.762-9.477-3.03.24-1.601,4.611-2.243,9.738-1.436,5.127.806,8.999,2.746,8.827,4.356Z" fill="#0a0a0a"></path>
            <circle id="e1_eye" cx="228.201" cy="110.548" r="3.289" fill="#0a0a0a"></circle>
            <path id="e1_eb-2" data-name="e1_eb" d="m199.223,104.171c.316.98-3.249,2.445-8.262,3.789s-9.55,2.312-9.891,1.076c-.431-1.561,3.305-3.921,8.318-5.264,5.013-1.343,9.339-1.142,9.835.4Z" fill="#0a0a0a"></path>
            <circle id="e1_eye-2" data-name="e1_eye" cx="194.092" cy="116.689" r="3.289" fill="#0a0a0a"></circle>
            <g id="e1_n">
              <path d="m213.238,138.224c-.666,0-1.236-.503-1.307-1.179-.076-.723.448-1.37,1.172-1.445l6.967-.728-4.289-13.917c-.213-.694.176-1.431.871-1.645.694-.213,1.43.175,1.645.87l4.759,15.446c.116.376.057.784-.161,1.113s-.569.542-.961.583l-8.559.895c-.046.005-.093.007-.137.007Z" fill="#0a0a0a"></path>
            </g>
            <path d="m212.797,151.424c3.888-.413,7.886-1.894,11.81-4.425.309-.199.398-.611.199-.92-.199-.309-.609-.4-.92-.199-7.65,4.935-15.233,5.704-21.928,2.225-.203-.106-.345-.175-.417-.201-.347-.125-.728.055-.852.4-.124.344.053.723.394.85.053.022.14.069.261.132,3.57,1.855,7.454,2.561,11.453,2.137Z" fill="#0c0c0c" opacity=".5"></path>
            <path d="m130.696,126.831l23.246-4.153c17.622-7.038,23.081-37.465,23.081-37.465,0,0,21.272,20.922,73.104,9.313,0,0-10.054-72.257-86.644-51.608-24.696,6.658-42.512,31.434-40.458,64.663,1.439,23.287,7.671,19.249,7.671,19.249Z" fill="#0a0a0a"></path>
            <path d="m159.208,151.216c-7.881,1.454-15.825-5.798-17.279-13.678-1.454-7.881,4.132-13.406,12.013-14.86l5.035,4.531,7.007,22.757-6.775,1.25Z" fill="#ff9e85"></path>
            <path d="m213.667,157.676c.7-.074,1.456-.215,2.265-.444.354-.1.56-.468.459-.821s-.471-.557-.821-.459c-4.459,1.261-6.984-.448-7.09-.522-.299-.209-.715-.137-.926.162-.211.299-.142.712.156.924.105.075,2.238,1.555,5.957,1.161Z" fill="#0c0c0c" opacity=".52"></path>
            <path d="m153.963,122.298l-.166-.472c15.444-5.465,20.71-15.968,22.409-23.816,1.844-8.523.004-15.853-.015-15.926l.484-.125c.019.074,1.886,7.502.022,16.138-1.722,7.979-7.064,18.655-22.735,24.201Z" fill="#0c0c0c"></path>
            <path d="m231.803,132.122c.264,2.49,3.227,4.225,6.626,3.879.61-.061,1.19-.192,1.729-.363.205-2.96.261-5.81.216-8.45-.88-.239-1.861-.327-2.88-.215-3.4.345-5.946,2.649-5.692,5.149Z" fill="#0c0c0c" opacity=".1"></path>
          </g>
          <path id="b_1_b" d="m182.784,233.972c-34.092-1.607-35.527-30.544-35.527-30.544,0,0-16.892,1.092-28.121,2.611-18.384,2.487-30.512,8.721-40.163,18.372-8.978,8.978-14.444,18.692-8.66,80.711,4.188,44.906,4.072,142.242,4.072,142.242l201.83-.488s16.135-144.612,17.854-164.826c3.283-38.589.948-51.439-5.879-60.481-13.696-18.14-45.177-18.14-61.85-18.138-.231,0,2.873,32.73-43.555,30.541Z" fill="#367cff"></path>
          <path d="m293.604,289.98c-.019,0-.038,0-.057-.003-.274-.031-.472-.278-.441-.553l3.229-28.838c.03-.274.283-.476.553-.441.274.031.472.278.441.553l-3.229,28.838c-.028.255-.245.444-.496.444Z" fill="#0c0c0c"></path>
          <path d="m288.19,221.569l92.3,128.536-54.919-9.218,129.335-83.165,39.792,57.71-123.714,91.316c-17.203,12.698-41.441,9.046-54.139-8.157l-.03-.04-.751-1.021-91.391-124.151,63.517-51.811Z" fill="#367cff"></path>
          <g>
            <path d="m241.066,395.175l31.011-14.541c2.855-1.338,6.283.028,7.394,3.054.985,2.683-.459,5.665-3.047,6.879l-6.65,3.118,25.412-.207c2.825-.072,6.338,1.646,6.21,4.82.066,2.573-1.675,4.768-4.066,5.382.004.027.016.053.014.081,0,.022-.009.041-.012.062l4.356-.111c3.359-.086,6.083,2.904,5.471,6.406-.448,2.564-2.793,4.368-5.395,4.435l-1.854.048c-.024.054-.056.104-.097.146,2.528.518,4.431,2.797,4.324,5.529-.114,2.897-2.636,5.126-5.535,5.2l-4.604.118c.128.089.218.229.223.4,0,.099-.035.187-.084.265,2.045,1.052,3.347,3.362,2.837,5.936-.496,2.505-2.817,4.236-5.37,4.302l-38.848.993c-11.118.284-21.296-6.206-25.729-16.405h0c-3.885-8.939.046-19.347,8.871-23.485l5.168-2.423Z" fill="#367cff"></path>
            <path d="m241.066,395.175l31.011-14.541c2.855-1.338,6.283.028,7.394,3.054.985,2.683-.459,5.665-3.047,6.879l-6.65,3.118,25.412-.207c2.825-.072,6.338,1.646,6.21,4.82.066,2.573-1.675,4.768-4.066,5.382.004.027.016.053.014.081,0,.022-.009.041-.012.062l4.356-.111c3.359-.086,6.083,2.904,5.471,6.406-.448,2.564-2.793,4.368-5.395,4.435l-1.854.048c-.024.054-.056.104-.097.146,2.528.518,4.431,2.797,4.324,5.529-.114,2.897-2.636,5.126-5.535,5.2l-4.604.118c.128.089.218.229.223.4,0,.099-.035.187-.084.265,2.045,1.052,3.347,3.362,2.837,5.936-.496,2.505-2.817,4.236-5.37,4.302l-38.848.993c-11.118.284-21.296-6.206-25.729-16.405h0c-3.885-8.939.046-19.347,8.871-23.485l5.168-2.423Z" fill="#fff" opacity=".5"></path>
            <g fill="none" opacity=".2">
              <path d="m272.178,404.01c.009.271.233.486.505.484l24.166-.228c.276-.003.498-.229.495-.505.018-.26-.229-.498-.505-.495l-24.166.228c-.276.003-.498.229-.495.505v.012Z" fill="#0c0c0c"></path>
            </g>
            <g fill="none" opacity=".2">
              <path d="m271.985,414.67c.009.271.233.486.505.484l26.969-.254c.276-.003.498-.229.495-.505-.004-.252-.229-.498-.505-.495l-26.969.254c-.276.003-.498.229-.495.505v.012Z" fill="#0c0c0c"></path>
            </g>
            <g fill="none" opacity=".2">
              <path d="m271.709,426.216c.009.271.233.486.505.484l21.513-.202c.276-.003.498-.229.495-.505-.008-.279-.229-.498-.505-.495l-21.513.202c-.276.003-.498.229-.495.505v.012Z" fill="#0c0c0c"></path>
            </g>
          </g>
          <path id="b_4_b" d="m248.517,447.108l-178.838.975c-1.356.147-2.712.22-4.061.22-10.264,0-20.15-4.216-27.274-11.767-8.061-8.545-11.652-20.372-9.703-31.955l39.842-159.603c3.437-20.423,22.775-34.19,43.202-30.759,20.423,3.436,34.195,22.778,30.759,43.202l-30.555,120.235,135.764,4.454.865,64.997Z" fill="#367cff"></path>
          <g id="b_4_st">
            <path d="m88.512,377.148c-.244,0-.457-.178-.494-.426-.041-.273.147-.527.42-.568l23.161.841c.283-.043.528.147.569.42.041.273-.147.527-.42.568l-23.161-.841c-.025.004-.05.006-.075.006Z" fill="#0c0c0c"></path>
          </g>
          <g id="b_4_st-2" data-name="b_4_st">
            <path d="m74.88,447.8c-.248,0-.462-.184-.495-.436-.036-.273.157-.524.431-.561l172.654-.076-.757-64.001-134.952-4.743c-.158.019-.315-.035-.425-.148-.11-.114-.16-.274-.134-.431l13.63-69.487c.045-.272.298-.461.576-.41.272.046.456.304.41.576l-13.517,68.819,134.788,4.764c.133-.019.269.02.375.103s.174.206.188.34l.865,64.997c.029.27-.163.515-.432.55l-173.139.139c-.022.003-.044.004-.065.004Z" fill="#0c0c0c"></path>
          </g>
          <path d="m181.407,132.297c9.888,1.833,36.631,5.314,56.307-5.84,2.184-1.238,4.914.236,5.085,2.741.905,13.292.176,45.791-27.806,50.698-18.238,3.198-30.638-1.467-36.041-4.247-1.886-.97-3.022-2.957-2.94-5.076,0,0,3.758-4.764,3.758-18.953,0-10.071-2.402-16.086-2.402-16.086.081-2.086,1.986-3.616,4.039-3.235Z" fill="#fff"></path>
          <path d="m180.775,136.895c-.309,0-.621-.071-.914-.222l-26.98-13.891c-.982-.506-1.368-1.712-.863-2.693.506-.983,1.712-1.367,2.694-.863l26.98,13.891c.982.506,1.368,1.712.863,2.693-.355.689-1.055,1.085-1.78,1.085Z" fill="#fff"></path>
          <path d="m177.523,173.447c-.465,0-.933-.162-1.312-.491l-21.698-18.883c-.833-.726-.921-1.988-.196-2.821.726-.833,1.989-.92,2.822-.196l21.698,18.883c.833.726.921,1.988.196,2.821-.396.455-.951.688-1.51.688Z" fill="#fff"></path>
          <path d="m286.775,359.526c-.011,0-.023,0-.034,0-.276-.019-.484-.258-.465-.533l3.269-48.16c.019-.275.261-.494.533-.465.276.019.484.258.465.533l-3.269,48.16c-.018.264-.238.466-.499.466Z" fill="#0c0c0c"></path>
        </g>
        <path d="m431.185,448.302H28.62c-.552,0-1-.448-1-1s.448-1,1-1h402.564c.552,0,1,.448,1,1s-.448,1-1,1Z" fill="#292a2e"></path>
      </g>
      <g>
        <path d="m983.44,595.946c0,43.2-10.69,83.9-29.58,119.6h-452.99c-18.89-35.7-29.58-76.4-29.58-119.6,0-141.42,114.65-256.07,256.07-256.07s256.08,114.65,256.08,256.07Z" fill="#367cff" opacity=".1"></path>
        <g>
          <g>
            <path id="sk-2" data-name="sk" d="m786.979,470.642c.225-.029,2.726,41.461,50.926,37.844,33.368-2.5,45.266-37.902,46.031-37.902-3.598-.765-8.044-1.925-9.811-2.323-5.87-1.323-13.199-6.167-14.892-16.371-.976-5.881.68-35.968.17-41.919l-51.22,11.432c.716,12.567,5.725,41.701-11.832,46.857-2.921.853-6.068,1.637-9.371,2.382Z" fill="#ff9e85"></path>
            <path id="sh-2" data-name="sh" d="m807.464,456.354c.726-2.316,1.157-4.33,1.541-7.95.686-6.474.321-12.425-.335-18.49,10.347-1.377,20.282-5.73,28.309-12.402.951,3.512,6.182,18.86,4.733,22.199-2.738,6.31-15.601,16.643-34.248,16.643Z" fill="#0c0c0c" opacity=".22"></path>
            <g>
              <path d="m777.006,377.142s-14.698-10.923-18.51-36.289c-2.951-19.641,15.281-7.038,15.281-7.038,0,0-1.987-14.163,8.348-12.833,10.336,1.33,16.235,16.179,16.235,16.179" fill="#0c0c0c"></path>
              <path d="m835.528,322.241s51.291,5.112,33.284,74.697l-4.533.338-9.201.686" fill="#0c0c0c"></path>
              <path d="m817.173,447.354c20.193-1.963,44.283-14.911,44.426-42.343l.13-24.752c.144-27.431-14.147-49.744-39.975-49.88h0c-25.828-.135-45.25,22.001-45.394,49.433l-.057,10.958c-.012,2.256.204,6.304.905,11.24,1.398,9.847,3.563,24.818,10.33,34.905,6.388,9.524,16.735,11.693,29.636,10.439Z" fill="#ff9e85"></path>
              <g>
                <g>
                  <circle id="e1_eye-3" data-name="e1_eye" cx="787.171" cy="394.834" r="2.816" transform="translate(-48.403 116.719) rotate(-8.228)" fill="#0a0a0a"></circle>
                  <g id="e1_n-2" data-name="e1_n">
                    <path d="m808.107,412.341c.564-.082.986-.577.963-1.159-.024-.622-.548-1.106-1.17-1.081l-5.994.236,1.929-12.32c.096-.615-.324-1.191-.94-1.287-.614-.096-1.19.324-1.287.939l-2.14,13.674c-.052.333.048.672.272.923s.549.39.886.377l7.363-.291c.04-.002.079-.005.117-.011Z" fill="#0a0a0a"></path>
                  </g>
                  <g id="e1_m">
                    <path d="m811.244,424.777c10.106-1.461,12.231-8.003,12.324-8.309.182-.595-.153-1.225-.747-1.407-.591-.182-1.219.15-1.405.74-.089.278-2.307,6.722-13.62,7.001-.635.013-1.115.533-1.099,1.154.015.622.532,1.114,1.154,1.098,1.221-.03,2.35-.127,3.394-.278Z" fill="#0a0a0a"></path>
                  </g>
                  <path id="e1_eb-3" data-name="e1_eb" d="m813.258,379.151c-.148.869,3.053,1.674,7.466,2.198s8.377.789,8.514-.3c.174-1.376-3.443-4.033-7.855-4.557-4.413-.524-7.893,1.292-8.125,2.659Z" fill="#0a0a0a"></path>
                  <circle id="e1_eye-4" data-name="e1_eye" cx="815.732" cy="391.65" r="2.817" transform="translate(-47.653 120.774) rotate(-8.228)" fill="#0a0a0a"></circle>
                </g>
                <path id="e1_eb-4" data-name="e1_eb" d="m779.488,384.63c.218.854,3.47.291,7.716-1.02,4.246-1.311,7.976-2.678,7.66-3.729-.399-1.328-4.344-2.45-8.59-1.139-4.246,1.311-7.129,4.545-6.786,5.888Z" fill="#0a0a0a"></path>
              </g>
              <path d="m859.951,413.36c7.849.041,14.256-8.323,14.297-16.172.041-7.849-6.299-12.211-14.148-12.252l-4.072,5.238-2.825,23.15,6.748.035Z" fill="#ff9e85"></path>
              <path d="m854.439,400.575c-1.308.127-2.474-.82-2.608-2.127-.862-8.446-4.489-36.778-14.509-38.741-7.85-1.538-26.774,9.723-44.405,6.496-7.713-1.411-15.011.55-15.728,4.194-.284,1.443-5.237-19.223,6.707-35.024,9.51-12.581,40.91-16.348,55.239-12.353,39.675,11.061,22.597,63.615,22.597,63.615l-1.429,11.495c-.138,1.11-1.027,1.976-2.14,2.084l-3.723.362Z" fill="#0c0c0c"></path>
              <ellipse cx="800.588" cy="333.228" rx="15.817" ry="10.746" transform="translate(316.032 1052.385) rotate(-78.627)" fill="#0c0c0c"></ellipse>
            </g>
          </g>
          <g>
            <g>
              <path d="m595.989,640.165l-31.984-8.056c-2.944-.741-5.935,1.179-6.43,4.244-.439,2.717,1.474,5.271,4.143,5.944l6.859,1.727-24.061,4.468c-2.684.45-5.689,2.719-4.986,5.696.41,2.444,2.458,4.2,4.831,4.342.001.026-.005.053.002.079.004.021.016.037.023.056l-4.139.694c-3.192.535-5.217,3.862-3.997,7.06.894,2.342,3.442,3.616,5.914,3.202l1.761-.295c.032.047.072.088.118.12-2.294.953-3.676,3.457-3.073,6.021.639,2.718,3.433,4.362,6.187,3.9l4.374-.734c-.105.108-.164.257-.138.419.018.094.067.17.128.235-1.74,1.37-2.547,3.792-1.592,6.132.929,2.277,3.441,3.488,5.866,3.081l36.907-6.19c10.562-1.772,18.993-9.775,21.312-20.23h0c2.032-9.164-3.594-18.281-12.696-20.573l-5.33-1.342Z" fill="#ff9e85"></path>
              <g fill="none" opacity=".2">
                <path d="m568.198,654.226c.041.258-.131.502-.388.55l-22.887,4.219c-.261.048-.512-.125-.561-.386-.065-.242.125-.513.386-.561l22.887-4.219c.261-.048.512.125.561.386l.002.011Z" fill="#0c0c0c"></path>
              </g>
              <g fill="none" opacity=".2">
                <path d="m570.338,664.269c.041.258-.131.502-.388.55l-25.542,4.709c-.261.048-.512-.125-.561-.386-.043-.239.125-.512.386-.561l25.542-4.709c.261-.048.512.125.561.386l.002.011Z" fill="#0c0c0c"></path>
              </g>
              <g fill="none" opacity=".2">
                <path d="m572.718,675.132c.041.258-.131.502-.388.55l-20.374,3.757c-.261.048-.512-.125-.561-.386-.043-.265.125-.512.386-.561l20.374-3.757c.261-.048.512.125.561.386l.002.011Z" fill="#0c0c0c"></path>
              </g>
            </g>
            <path d="m802.739,525.521l-53.21,158.276-.222.662c-5.249,15.612-20.361,25.133-36.062,24.003l-125.975-9.078,6.025-72.333,125.741,11.887-36.284,24.665,41.387-157.1,78.6,19.018Z" fill="#367cff"></path>
          </g>
          <path id="b_1_b-2" data-name="b_1_b" d="m836.692,499.718c34.092-1.607,36.205-32.001,36.205-32.001,0,0,16.892,1.092,28.121,2.611,18.384,2.487,30.512,8.721,40.163,18.372,8.978,8.978,16.927,31.905,7.982,82.169-1.404,7.89-1.24,143.679-1.24,143.679h-205.75s-12.338-129.465-14.058-149.679c-3.283-38.589-13.015-54.532,5.773-74.41,13.625-14.416,45.089-21.284,59.249-21.282.231,0-2.873,32.73,43.555,30.541Z" fill="#367cff"></path>
          <path d="m733.888,627.652c-.255,0-.473-.194-.498-.453l-6.525-69.547c-.025-.275.176-.519.451-.545.278-.015.519.176.545.451l6.525,69.547c.025.275-.176.519-.451.545-.016,0-.032.002-.047.002Z" fill="#0c0c0c"></path>
          <path d="m509.329,706.547h-16v-110.596c0-29.967,24.38-54.347,54.347-54.347s54.347,24.38,54.347,54.347h-16c0-21.145-17.202-38.347-38.347-38.347s-38.347,17.202-38.347,38.347v110.596Z" fill="#292a2e"></path>
          <polygon points="601.023 595.951 620.325 706.548 567.721 706.548 587.023 595.951 601.023 595.951" fill="#367cff"></polygon>
          <polygon points="601.023 595.951 620.325 706.548 567.721 706.548 587.023 595.951 601.023 595.951" fill="#fff" opacity=".84"></polygon>
          <g>
            <path d="m573.617,677.16c-4.181,0-7.72,2.73-8.943,6.503-1.126-.712-2.457-1.13-3.888-1.13-.322,0-.637.028-.948.068,0-.023.003-.045.003-.068,0-7.51-6.088-13.598-13.598-13.598-5.536,0-10.291,3.314-12.412,8.062-1.92-1.367-4.263-2.18-6.8-2.18-6.487,0-11.745,5.259-11.745,11.745s5.258,11.746,11.745,11.746c4.284,0,8.021-2.301,10.073-5.727,2.416,2.198,5.616,3.55,9.139,3.55,3.073,0,5.898-1.031,8.175-2.75,1.248,2.231,3.63,3.742,6.368,3.742s5.121-1.511,6.368-3.742c1.685,1.598,3.956,2.584,6.462,2.584,5.193,0,9.403-4.21,9.403-9.403s-4.21-9.403-9.403-9.403Z" fill="#367cff"></path>
            <path d="m573.617,677.16c-4.181,0-7.72,2.73-8.943,6.503-1.126-.712-2.457-1.13-3.888-1.13-.322,0-.637.028-.948.068,0-.023.003-.045.003-.068,0-7.51-6.088-13.598-13.598-13.598-5.536,0-10.291,3.314-12.412,8.062-1.92-1.367-4.263-2.18-6.8-2.18-6.487,0-11.745,5.259-11.745,11.745s5.258,11.746,11.745,11.746c4.284,0,8.021-2.301,10.073-5.727,2.416,2.198,5.616,3.55,9.139,3.55,3.073,0,5.898-1.031,8.175-2.75,1.248,2.231,3.63,3.742,6.368,3.742s5.121-1.511,6.368-3.742c1.685,1.598,3.956,2.584,6.462,2.584,5.193,0,9.403-4.21,9.403-9.403s-4.21-9.403-9.403-9.403Z" fill="#fff" opacity=".56"></path>
          </g>
          <g>
            <path d="m631.53,677.16c-4.181,0-7.72,2.73-8.943,6.503-1.126-.712-2.457-1.13-3.888-1.13-.322,0-.637.028-.948.068,0-.023.003-.045.003-.068,0-7.51-6.088-13.598-13.598-13.598-5.536,0-10.291,3.314-12.412,8.062-1.92-1.367-4.263-2.18-6.8-2.18-6.487,0-11.745,5.259-11.745,11.745s5.258,11.746,11.745,11.746c4.284,0,8.021-2.301,10.073-5.727,2.416,2.198,5.616,3.55,9.139,3.55,3.073,0,5.898-1.031,8.175-2.75,1.248,2.231,3.63,3.742,6.368,3.742s5.121-1.511,6.368-3.742c1.685,1.598,3.956,2.584,6.462,2.584,5.193,0,9.403-4.21,9.403-9.403s-4.21-9.403-9.403-9.403Z" fill="#367cff"></path>
            <path d="m631.53,677.16c-4.181,0-7.72,2.73-8.943,6.503-1.126-.712-2.457-1.13-3.888-1.13-.322,0-.637.028-.948.068,0-.023.003-.045.003-.068,0-7.51-6.088-13.598-13.598-13.598-5.536,0-10.291,3.314-12.412,8.062-1.92-1.367-4.263-2.18-6.8-2.18-6.487,0-11.745,5.259-11.745,11.745s5.258,11.746,11.745,11.746c4.284,0,8.021-2.301,10.073-5.727,2.416,2.198,5.616,3.55,9.139,3.55,3.073,0,5.898-1.031,8.175-2.75,1.248,2.231,3.63,3.742,6.368,3.742s5.121-1.511,6.368-3.742c1.685,1.598,3.956,2.584,6.462,2.584,5.193,0,9.403-4.21,9.403-9.403s-4.21-9.403-9.403-9.403Z" fill="#fff" opacity=".56"></path>
          </g>
          <rect x="472.411" y="688.579" width="170.609" height="26.251" rx="13.126" ry="13.126" fill="#367cff"></rect>
          <rect x="472.411" y="688.579" width="170.609" height="26.251" rx="13.126" ry="13.126" fill="#0c0c0c" opacity=".1"></rect>
          <g>
            <g>
              <path d="m654.87,640.14l-33.643-6.425c-3.097-.591-6.081,1.58-6.41,4.787-.291,2.843,1.845,5.376,4.652,5.912l7.214,1.378-24.674,6.08c-2.755.628-5.734,3.161-4.826,6.205.572,2.509,2.801,4.206,5.27,4.211.003.027-.002.055.006.082.005.021.019.037.027.057l-4.249.969c-3.276.747-5.176,4.317-3.718,7.559,1.067,2.374,3.786,3.542,6.324,2.963l1.808-.412c.036.047.08.087.13.118-2.321,1.127-3.603,3.805-2.823,6.427.827,2.779,3.822,4.315,6.649,3.67l4.491-1.024c-.102.118-.155.276-.117.443.024.096.08.173.147.236-1.721,1.525-2.412,4.085-1.282,6.453,1.1,2.305,3.777,3.409,6.267,2.841l37.888-8.64c10.843-2.473,19.101-11.277,20.875-22.256h0c1.555-9.622-4.827-18.735-14.401-20.563l-5.606-1.071Z" fill="#ff9e85"></path>
              <g fill="none" opacity=".2">
                <path d="m626.906,656.39c.058.265-.105.529-.369.593l-23.472,5.752c-.268.066-.539-.098-.605-.367-.082-.247.099-.539.367-.605l23.472-5.752c.268-.066.539.098.605.367l.003.011Z" fill="#0c0c0c"></path>
              </g>
              <g fill="none" opacity=".2">
                <path d="m629.729,666.673c.058.265-.105.529-.369.593l-26.195,6.42c-.268.066-.539-.098-.605-.367-.059-.246.099-.539.367-.605l26.195-6.42c.268-.066.539.098.605.367l.003.011Z" fill="#0c0c0c"></path>
              </g>
              <g fill="none" opacity=".2">
                <path d="m632.85,677.791c.058.265-.105.529-.369.593l-20.895,5.121c-.268.066-.539-.098-.605-.367-.061-.272.099-.539.367-.605l20.895-5.121c.268-.066.539.098.605.367l.003.011Z" fill="#0c0c0c"></path>
              </g>
            </g>
            <path d="m896.297,510.348l-103.599,111.096-137.297,6.164,3.918,72.478,153.845-9.729c9.574-.644,18.991-5.146,25.476-13.215l.481-.599,105.549-102.905c8.14-7.937,7.3-21.26-1.774-28.11l-46.599-35.179Z" fill="#367cff"></path>
            <path d="m659.319,700.585c-.122,0-.24-.045-.332-.126-.1-.089-.16-.214-.167-.347l-3.919-72.477c-.007-.134.04-.264.129-.363.089-.099.215-.157.348-.163l137.093-6.156,78.765-84.463c.189-.201.505-.212.707-.024.202.188.213.504.025.706l-78.904,84.612c-.089.096-.212.152-.343.158l-136.793,6.143,3.864,71.469,153.341-9.696c9.84-.661,18.996-5.41,25.118-13.029l.481-.6,89.129-92.344c.192-.198.509-.203.707-.012.199.191.205.508.013.707l-89.1,92.31-.452.565c-6.297,7.836-15.712,12.72-25.832,13.4l-153.847,9.729c-.011,0-.021,0-.032,0Z" fill="#0c0c0c"></path>
          </g>
          <circle cx="536.491" cy="601.733" r="10.601" fill="#367cff"></circle>
          <circle cx="613.3" cy="510.482" r="8.87" fill="#367cff"></circle>
          <circle cx="562.672" cy="490.917" r="4.957" fill="#367cff"></circle>
          <circle cx="536.491" cy="601.733" r="10.601" fill="#fff" opacity=".6"></circle>
          <circle cx="613.3" cy="510.482" r="8.87" fill="#fff" opacity=".6"></circle>
          <circle cx="562.672" cy="490.917" r="4.957" fill="#fff" opacity=".6"></circle>
          <path d="m504.276,684.465c5.553-3.179,20.216-9.399,37.433.791,1.352.8,2.181,2.266,2.181,3.837h0c0,2.71-2.394,4.784-5.077,4.405-3.578-.505-9.098-1.021-16.713-1.021-7.031,0-11.817.44-14.911.905-2.597.39-4.961-1.527-5.108-4.149l-.037-.653c-.095-1.686.768-3.275,2.233-4.114Z" fill="#367cff"></path>
          <path d="m504.276,684.465c5.553-3.179,20.216-9.399,37.433.791,1.352.8,2.181,2.266,2.181,3.837h0c0,2.71-2.394,4.784-5.077,4.405-3.578-.505-9.098-1.021-16.713-1.021-7.031,0-11.817.44-14.911.905-2.597.39-4.961-1.527-5.108-4.149l-.037-.653c-.095-1.686.768-3.275,2.233-4.114Z" fill="#fff" opacity=".9"></path>
          <circle cx="493.803" cy="656.047" r="10.957" fill="#367cff"></circle>
          <circle cx="493.803" cy="656.047" r="10.957" fill="#0c0c0c" opacity=".1"></circle>
          <g fill="none" opacity=".67">
            <path d="m565.499,651.275c.042-.438.067-.882.067-1.331,0-.965-.098-1.906-.285-2.816,4.363-.384,7.786-4.043,7.786-8.505,0-4.718-3.825-8.543-8.544-8.543-4.084,0-7.494,2.868-8.338,6.698-1.432-.497-2.964-.78-4.565-.78-7.702,0-13.946,6.244-13.946,13.946,0,2.252.546,4.372,1.494,6.255-2.008,1.804-3.278,4.412-3.278,7.323,0,5.24,4.094,9.512,9.256,9.823-.206.794-.327,1.622-.327,2.48,0,5.441,4.411,9.853,9.853,9.853s9.853-4.411,9.853-9.853c0-1.828-.507-3.534-1.374-5.001.45.063.906.107,1.374.107,5.441,0,9.853-4.411,9.853-9.853,0-5.112-3.894-9.313-8.877-9.803Zm-10.023,13.702c.165.382.359.747.569,1.102-.256-.036-.515-.061-.778-.077.087-.335.156-.677.208-1.025Z" fill="#367cff"></path>
            <path d="m565.499,651.275c.042-.438.067-.882.067-1.331,0-.965-.098-1.906-.285-2.816,4.363-.384,7.786-4.043,7.786-8.505,0-4.718-3.825-8.543-8.544-8.543-4.084,0-7.494,2.868-8.338,6.698-1.432-.497-2.964-.78-4.565-.78-7.702,0-13.946,6.244-13.946,13.946,0,2.252.546,4.372,1.494,6.255-2.008,1.804-3.278,4.412-3.278,7.323,0,5.24,4.094,9.512,9.256,9.823-.206.794-.327,1.622-.327,2.48,0,5.441,4.411,9.853,9.853,9.853s9.853-4.411,9.853-9.853c0-1.828-.507-3.534-1.374-5.001.45.063.906.107,1.374.107,5.441,0,9.853-4.411,9.853-9.853,0-5.112-3.894-9.313-8.877-9.803Zm-10.023,13.702c.165.382.359.747.569,1.102-.256-.036-.515-.061-.778-.077.087-.335.156-.677.208-1.025Z" fill="#fff" opacity=".8"></path>
          </g>
          <g fill="none" opacity=".67">
            <path d="m619.891,657.743c.042-.438.067-.882.067-1.331,0-.965-.098-1.906-.285-2.816,4.363-.384,7.786-4.043,7.786-8.505,0-4.718-3.825-8.543-8.544-8.543-4.084,0-7.494,2.868-8.338,6.698-1.432-.497-2.964-.78-4.565-.78-7.702,0-13.946,6.244-13.946,13.946,0,2.252.546,4.372,1.494,6.255-2.008,1.804-3.278,4.412-3.278,7.323,0,5.24,4.094,9.512,9.256,9.823-.206.794-.327,1.622-.327,2.48,0,5.441,4.411,9.853,9.853,9.853s9.853-4.411,9.853-9.853c0-1.828-.507-3.534-1.374-5.001.45.063.906.107,1.374.107,5.441,0,9.853-4.411,9.853-9.853,0-5.112-3.894-9.313-8.877-9.803Zm-10.023,13.702c.165.382.359.747.569,1.102-.256-.036-.515-.061-.778-.077.087-.335.156-.677.208-1.025Z" fill="#367cff"></path>
            <path d="m619.891,657.743c.042-.438.067-.882.067-1.331,0-.965-.098-1.906-.285-2.816,4.363-.384,7.786-4.043,7.786-8.505,0-4.718-3.825-8.543-8.544-8.543-4.084,0-7.494,2.868-8.338,6.698-1.432-.497-2.964-.78-4.565-.78-7.702,0-13.946,6.244-13.946,13.946,0,2.252.546,4.372,1.494,6.255-2.008,1.804-3.278,4.412-3.278,7.323,0,5.24,4.094,9.512,9.256,9.823-.206.794-.327,1.622-.327,2.48,0,5.441,4.411,9.853,9.853,9.853s9.853-4.411,9.853-9.853c0-1.828-.507-3.534-1.374-5.001.45.063.906.107,1.374.107,5.441,0,9.853-4.411,9.853-9.853,0-5.112-3.894-9.313-8.877-9.803Zm-10.023,13.702c.165.382.359.747.569,1.102-.256-.036-.515-.061-.778-.077.087-.335.156-.677.208-1.025Z" fill="#fff" opacity=".8"></path>
          </g>
        </g>
        <path d="m966.607,715.548h-504.995c-.552,0-1-.448-1-1s.448-1,1-1h504.995c.552,0,1,.448,1,1s-.448,1-1,1Z" fill="#292a2e"></path>
      </g>
    </g>
  </g>
</svg>